<?xml version="1.0" encoding="utf-8"?>
<!-- Generator: Adobe Illustrator 16.0.0, SVG Export Plug-In . SVG Version: 6.00 Build 0)  -->
<!DOCTYPE svg PUBLIC "-//W3C//DTD SVG 1.1//EN" "http://www.w3.org/Graphics/SVG/1.1/DTD/svg11.dtd">
<svg version="1.1" id="Layer_1" xmlns="http://www.w3.org/2000/svg" xmlns:xlink="http://www.w3.org/1999/xlink" x="0px" y="0px"
	 width="600px" height="600px" viewBox="0 0 600 600" enable-background="new 0 0 600 600" xml:space="preserve">
<g transform="translate(300,300)">
	<path fill="#FCB900" d="M152.3-189.5c36.6,38.7,52,94.7,55.1,147.7c3.101,53-6,102.899-25.6,156c-19.7,53.1-49.8,109.5-94.2,125.1
		C43.1,255-15.7,229.9-63.2,200.8c-47.4-29.1-83.5-62.2-120-104.899C-219.6,53.1-256.6,0.7-246.4-41
		c10.3-41.8,67.601-72.8,116.5-109.3c48.9-36.6,89.4-78.6,138.6-89C57.9-249.6,115.699-228.2,152.3-189.5z"/>
</g>
</svg>
