<svg id="Capa_1" enable-background="new 0 0 512 512" height="512" viewBox="0 0 512 512" width="512" xmlns="http://www.w3.org/2000/svg" xmlns:xlink="http://www.w3.org/1999/xlink"><linearGradient id="lg1"><stop offset="0" stop-color="#ff4747"/><stop offset="1" stop-color="#ff9ceb"/></linearGradient><linearGradient id="SVGID_1_" gradientUnits="userSpaceOnUse" x1="74.98" x2="437.019" xlink:href="#lg1" y1="437.019" y2="74.98"/><radialGradient id="SVGID_2_" cx="256" cy="256" gradientUnits="userSpaceOnUse" r="256"><stop offset="0" stop-color="#ff2f2b"/><stop offset="1" stop-color="#ff9ceb" stop-opacity="0"/></radialGradient><linearGradient id="lg2"><stop offset="0" stop-color="#ffb5d3"/><stop offset=".4183" stop-color="#ffdbea"/><stop offset=".7836" stop-color="#fff5f9"/><stop offset="1" stop-color="#fff"/></linearGradient><linearGradient id="SVGID_3_" gradientUnits="userSpaceOnUse" x1="-151.485" x2="510.293" xlink:href="#lg2" y1="663.485" y2="1.707"/><linearGradient id="SVGID_4_" gradientUnits="userSpaceOnUse" x1="326.044" x2="486.742" xlink:href="#lg1" y1="201.227" y2="40.529"/><linearGradient id="SVGID_5_" gradientUnits="userSpaceOnUse" x1="75.911" x2="402.481" xlink:href="#lg1" y1="360.865" y2="34.295"/><linearGradient id="lg3"><stop offset="0" stop-color="#ff79a2"/><stop offset="1" stop-color="#ffe3f1"/></linearGradient><linearGradient id="SVGID_6_" gradientUnits="userSpaceOnUse" x1="-3.533" x2="356.06" xlink:href="#lg3" y1="454.573" y2="94.98"/><linearGradient id="SVGID_7_" gradientUnits="userSpaceOnUse" x1="-246.31" x2="419.317" xlink:href="#lg2" y1="802.149" y2="136.522"/><linearGradient id="SVGID_8_" gradientUnits="userSpaceOnUse" x1="-69.479" x2="453.973" xlink:href="#lg3" y1="596.423" y2="72.97"/><linearGradient id="SVGID_9_" gradientUnits="userSpaceOnUse" x1="-82.524" x2="436.329" xlink:href="#lg3" y1="669.985" y2="151.132"/><linearGradient id="SVGID_10_" gradientUnits="userSpaceOnUse" x1="8.869" x2="370.581" xlink:href="#lg2" y1="365.492" y2="3.781"/><linearGradient id="SVGID_11_" gradientUnits="userSpaceOnUse" x1="84.381" x2="354.837" xlink:href="#lg3" y1="368.972" y2="98.517"/><linearGradient id="SVGID_12_" gradientUnits="userSpaceOnUse" x1="12.084" x2="374.922" xlink:href="#lg3" y1="346.905" y2="-15.933"/><g><circle cx="256" cy="256" fill="url(#SVGID_1_)" r="256"/><circle cx="256" cy="256" fill="url(#SVGID_2_)" r="256"/><path d="m407 407.652c-100.667 4.165-201.333 4.165-302 0-8.275-.349-15.365-7.375-15.784-15.651-4.488-90.667-4.488-181.333 0-272 .417-8.277 7.508-15.302 15.784-15.651 100.667-4.165 201.333-4.165 302 0 8.277.349 15.366 7.374 15.784 15.651 4.488 90.667 4.488 181.333 0 272-.418 8.276-7.509 15.301-15.784 15.651z" fill="url(#SVGID_3_)"/><path d="m347.429 117.622c-19.344 40.243-39.894 81.042-60.688 121.991 41.309-20.449 82.494-40.695 123.077-59.941-.503-20.086-1.205-40.173-2.106-60.259-20.094-.745-40.188-1.342-60.283-1.791z" fill="url(#SVGID_4_)"/><path d="m104.287 119.413c-.901 20.086-1.603 40.173-2.106 60.259 81.166 38.493 164.74 80.984 246.901 121.097.527-61.049-.024-122.098-1.652-183.148-81.048-1.811-162.095-1.213-243.143 1.792z" fill="url(#SVGID_5_)"/><path d="m102.181 179.672c-.252 10.043-.453 20.086-.606 30.129 51.171 19.453 102.844 40.049 154.425 60.549 51.581-20.5 103.254-41.096 154.425-60.548-.152-10.043-.354-20.086-.606-30.129-102.546-2.097-205.092-2.097-307.638-.001z" fill="url(#SVGID_6_)"/><path d="m101.575 209.802c-.924 60.928-.02 121.857 2.712 182.785 101.142 3.751 202.284 3.751 303.425 0 2.732-60.928 3.636-121.857 2.712-182.785-102.949-1.269-205.899-1.269-308.849 0z" fill="url(#SVGID_7_)"/><path d="m193.492 239.654c-5.124.009-10.247.019-15.371.03-15.371.033-30.742.076-46.112.129.029.038.059.076.087.115-.029-.039-.058-.076-.087-.115-.173 41.143.313 82.286 1.457 123.429 61.436 1.412 122.872 1.762 184.308 1.05-40.606-41.069-82.697-83.164-124.282-124.638z" fill="url(#SVGID_8_)"/><path d="m193.492 239.654c.047 68.622 56.446 125.407 124.281 124.638 20.254-.235 40.507-.585 60.761-1.05 1.144-41.143 1.629-82.286 1.457-123.429-62.166-.213-124.333-.266-186.499-.159z" fill="url(#SVGID_9_)"/><path d="m317.546 132.384c-61.21-.813-122.419-.413-183.628 1.199-8.352.225-15.375 7.201-15.642 15.546-.268 8.347 6.378 14.965 14.798 14.805 61.633-1.212 123.265-1.513 184.898-.902 8.421.08 15.145-6.682 14.993-15.127-.155-8.444-7.066-15.408-15.419-15.521z" fill="url(#SVGID_10_)"/><path d="m317.546 132.384c-10.09-.134-20.179-.235-30.268-.303.082 10.241.154 20.483.216 30.724 10.159.051 20.318.127 30.478.228 8.421.08 15.145-6.682 14.993-15.127-.155-8.445-7.066-15.409-15.419-15.522z" fill="url(#SVGID_11_)"/><path d="m302.583 147.554c-.094-8.473-6.955-15.415-15.306-15.473-51.12-.345-102.24.156-153.36 1.502-8.352.225-15.375 7.201-15.642 15.546-.268 8.347 6.378 14.965 14.798 14.805 51.473-1.012 102.947-1.389 154.42-1.129 8.421.04 15.184-6.777 15.09-15.251z" fill="url(#SVGID_12_)"/></g></svg>