<?xml version="1.0" encoding="iso-8859-1"?>
<!-- Generator: Adobe Illustrator 19.0.0, SVG Export Plug-In . SVG Version: 6.00 Build 0)  -->
<svg version="1.1" id="Layer_1" xmlns="http://www.w3.org/2000/svg" xmlns:xlink="http://www.w3.org/1999/xlink" x="0px" y="0px"
	 viewBox="0 0 502.039 502.039" style="enable-background:new 0 0 502.039 502.039;" xml:space="preserve">
<path style="fill:#56250F;" d="M6.57,74.917c-24.096,24.631,22.977,39.952,62.133,78.218c39.125,38.29,55.485,85.031,79.581,60.416
	c24.072-24.615,11.886-75.618-27.246-113.892C81.889,61.376,30.641,50.302,6.57,74.917z"/>
<path style="fill:#E58761;" d="M99.549,114.301C68.561,83.991,30.035,70.821,3.34,78.84c-15.675,22.433,28.357,38.109,65.363,74.295
	c30.287,29.649,46.939,64.197,64.102,66.938C148.086,193.543,134.798,148.787,99.549,114.301z"/>
<path style="fill:#D86A39;" d="M83.795,130.055c25.324,24.773,47.805,54.894,48.018,79.691l0.992,10.327
	c15.281-26.522,2.001-71.278-33.256-105.771C68.561,83.991,30.035,70.821,3.34,78.84"/>
<path style="fill:#56250F;" d="M495.466,74.917c24.103,24.631-22.977,39.952-62.125,78.218
	c-39.117,38.29-55.485,85.031-79.581,60.416c-24.072-24.615-11.886-75.618,27.238-113.892
	C420.147,61.376,471.402,50.302,495.466,74.917z"/>
<path style="fill:#E58761;" d="M402.487,114.301c30.988-30.31,69.522-43.481,96.217-35.462
	c15.675,22.433-28.357,38.109-65.363,74.295c-30.287,29.649-46.939,64.197-64.102,66.938
	C353.958,193.543,367.238,148.787,402.487,114.301z"/>
<path style="fill:#D86A39;" d="M418.241,130.055c-25.316,24.773-47.797,54.894-48.018,79.691l-0.985,10.327
	c-15.281-26.522-2.009-71.278,33.248-105.771c30.988-30.31,69.522-43.481,96.217-35.462"/>
<path style="fill:#E58761;" d="M484.013,306.758c0,94.767-104.314,121.368-232.992,121.368s-232.999-26.6-232.999-121.368
	c0-94.783,104.322-171.615,232.999-171.615S484.013,211.975,484.013,306.758z"/>
<path style="fill:#D86A39;" d="M484.013,306.758c0,94.767-104.314,121.368-232.992,121.368s-232.999-26.6-232.999-121.368
	c0-94.783,104.322-147.787,232.999-147.787S484.013,211.975,484.013,306.758z"/>
<path style="fill:#C14D14;" d="M484.013,306.758c0,94.767-104.314,121.368-232.992,121.368s-232.999-26.6-232.999-121.368
	c0-94.783,104.322-43.26,232.999-43.26S484.013,211.975,484.013,306.758z"/>
<g>
	<circle style="fill:#082856;" cx="158.941" cy="288.586" r="20.929"/>
	<circle style="fill:#082856;" cx="343.103" cy="288.586" r="20.929"/>
</g>
<path d="M179.87,288.602c0,11.571-9.366,20.937-20.929,20.937c-11.563,0-20.929-9.366-20.929-20.937"/>
<path d="M364.032,288.602c0,11.571-9.366,20.937-20.921,20.937c-11.563,0-20.929-9.366-20.929-20.937"/>
<path style="fill:#56250F;" d="M343.56,349.822c0,24.245-41.448,77.107-92.538,77.107c-51.105,0-92.538-52.862-92.538-77.107
	c0-24.261,41.433-43.906,92.538-43.906C302.112,305.916,343.56,325.561,343.56,349.822z"/>
<path style="fill:#261005;" d="M343.56,349.822c0,24.245-41.448,77.107-92.538,77.107c-51.105,0-92.538-52.862-92.538-77.107
	c0-24.261,41.433-4.553,92.538-4.553C302.112,345.269,343.56,325.561,343.56,349.822z"/>
<path style="fill:#F25595;" d="M182.343,412.916c-21.354-6.372-40.101-15.321-54.414-25.214c-6.475,17.613-8.46,40.275,2.796,48.876
	c14.919,11.382,47.561-6.152,60.306-21.276C188.156,414.578,185.265,413.79,182.343,412.916z"/>
<path style="fill:#F980B7;" d="M127.929,387.702c-2.788,7.585-4.647,16.061-5.073,24.001c0.717,3.151,1.867,6.073,3.868,8.413
	c11.941,13.966,44.56,6.199,63.244-5.104c-2.528-0.646-5.065-1.323-7.633-2.095C160.989,406.543,142.242,397.587,127.929,387.702z"
	/>
<g>
</g>
<g>
</g>
<g>
</g>
<g>
</g>
<g>
</g>
<g>
</g>
<g>
</g>
<g>
</g>
<g>
</g>
<g>
</g>
<g>
</g>
<g>
</g>
<g>
</g>
<g>
</g>
<g>
</g>
</svg>
