<svg width="200" height="200" viewBox="0 0 305 208" fill="none" xmlns="http://www.w3.org/2000/svg">
<g filter="url(#filter0_i_14_27)">
<path d="M19.1168 25.8C19.1968 25.72 19.6568 25.64 20.4968 25.56C21.3768 25.44 22.3968 25.08 23.5568 24.48C23.5968 24.48 23.5768 24 23.4968 23.04C23.3768 21.36 23.2768 20.16 23.1968 19.44C23.1168 18.48 23.0368 17.8 22.9568 17.4C22.9568 16.64 22.6568 15.06 22.0568 12.66L19.4168 21.6C18.8568 24.08 18.6368 25.6 18.7568 26.16L19.1168 25.8ZM11.0168 27.54L11.3768 24.9C11.3768 24.38 11.4568 23.86 11.6168 23.34C11.6168 22.66 11.9568 21.64 12.6368 20.28C12.6368 20.2 12.8168 19.68 13.1768 18.72C13.1768 18.64 13.5568 17.46 14.3168 15.18L15.0368 13.44C15.0368 13.28 15.1368 12.98 15.3368 12.54C15.5368 12.06 15.6768 11.6 15.7568 11.16C15.8768 10.68 16.0168 10.22 16.1768 9.78C16.7368 8.7 17.2368 7.78 17.6768 7.02C18.5168 5.42 20.0768 4.7 22.3568 4.86L24.2768 5.04C25.4768 5.36 26.3968 5.7 27.0368 6.06C27.9568 6.42 28.5768 6.82 28.8968 7.26C29.2168 7.66 29.3568 8.34 29.3168 9.3C29.3568 9.78 29.4768 11.86 29.6768 15.54C29.8768 19.22 29.9768 21.08 29.9768 21.12L30.2768 23.7C30.2768 23.94 30.7168 26.82 31.5968 32.34L32.9168 36.54C33.7168 38.78 34.1368 39.96 34.1768 40.08C34.2568 40.16 34.4368 40.58 34.7168 41.34C35.1568 42.66 34.7768 43.54 33.5768 43.98C32.4968 44.14 31.6968 44.04 31.1768 43.68C30.9768 43.68 30.5168 43.5 29.7968 43.14C29.7168 42.94 29.4768 42.74 29.0768 42.54C28.7168 42.38 28.4768 42.24 28.3568 42.12C27.9168 42 27.5168 41.38 27.1568 40.26C27.0368 40.18 26.8168 39.86 26.4968 39.3C26.2168 38.74 26.1368 38.28 26.2568 37.92C25.9768 37.56 25.8368 36.82 25.8368 35.7C25.4768 35.1 25.2968 34.16 25.2968 32.88C25.2968 31.6 25.0968 30.6 24.6968 29.88C22.6568 30.8 20.4768 31.3 18.1568 31.38C17.7168 31.38 17.4968 31.46 17.4968 31.62C17.4968 31.98 17.3768 32.62 17.1368 33.54L16.1168 40.14C16.5168 43.1 16.1568 44.66 15.0368 44.82C14.7168 44.82 14.1768 44.9 13.4168 45.06C12.6968 45.22 12.0968 45.08 11.6168 44.64C10.6968 44.12 10.0368 43.58 9.6368 43.02C9.2768 42.5 9.1168 41.9 9.1568 41.22C9.1968 40.66 9.2968 39.46 9.4568 37.62C9.5368 37.54 9.5568 37.1 9.5168 36.3C9.5168 35.46 9.5768 34.82 9.6968 34.38L10.6568 30.66C10.7768 30.58 10.9368 29.98 11.1368 28.86C11.0968 28.78 11.0768 28.58 11.0768 28.26L11.0168 27.54ZM38.8446 24.3C38.8446 23.94 38.8046 23.52 38.7246 23.04V22.62C38.7646 22.34 38.7446 22.04 38.6646 21.72C38.6646 21.32 38.7046 20.96 38.7846 20.64C38.7846 19.84 38.8846 19.32 39.0846 19.08C39.0846 18.88 39.3646 18.42 39.9246 17.7C40.0846 17.54 40.3846 17.28 40.8246 16.92C41.4646 16.72 41.9046 16.6 42.1446 16.56C42.3046 16.4 42.8446 16.46 43.7646 16.74C44.1646 16.78 44.7846 16.92 45.6246 17.16C45.9046 17.24 46.2646 17.56 46.7046 18.12C46.6246 18.28 46.4846 18.88 46.2846 19.92C46.1246 20.92 46.0646 21.74 46.1046 22.38C46.3446 22.18 46.7646 21.76 47.3646 21.12C47.9646 20.48 48.2846 20.14 48.3246 20.1C49.3646 19.62 50.3846 19.28 51.3846 19.08C52.8246 18.96 53.7646 19.06 54.2046 19.38C54.5646 19.5 54.8446 19.68 55.0446 19.92C55.4046 20.24 55.7046 20.8 55.9446 21.6C56.1846 22.36 56.1646 22.84 55.8846 23.04C55.6446 23.24 54.8446 23.4 53.4846 23.52C53.4046 23.52 53.1246 23.68 52.6446 24L49.5246 26.46C48.8846 26.78 48.4446 27.06 48.2046 27.3L47.0646 29.4C47.0246 29.48 46.9846 30 46.9446 30.96C46.9046 31.92 46.9046 32.62 46.9446 33.06C46.9846 33.46 46.9846 34.8 46.9446 37.08V39.66C46.9446 41.06 46.9246 41.86 46.8846 42.06C46.8446 42.3 46.6846 42.7 46.4046 43.26C46.2846 43.46 45.9046 43.56 45.2646 43.56C43.7046 44.72 42.7046 44.66 42.2646 43.38L41.4846 42.9C41.1646 42.74 40.9646 42.54 40.8846 42.3C40.5646 41.86 40.4046 41.6 40.4046 41.52L40.1646 40.68L39.8046 39.96C39.6846 39.92 39.5846 39.16 39.5046 37.68C39.4246 36.16 39.3846 35.24 39.3846 34.92C39.3846 34.56 39.3446 34.18 39.2646 33.78C39.5446 33.5 39.6646 33.02 39.6246 32.34C39.6246 31.66 39.5846 31.14 39.5046 30.78C39.4246 30.38 39.4246 30.14 39.5046 30.06C39.5846 29.94 39.5646 29.38 39.4446 28.38C39.3246 28.22 39.3046 27.92 39.3846 27.48L38.8446 24.3ZM70.9352 22.8C71.0952 22.2 71.0752 21.44 70.8752 20.52C70.5952 20.28 70.2152 20.16 69.7352 20.16C69.1352 20.16 68.5952 20.72 68.1152 21.84C67.4752 22.8 66.9952 23.86 66.6752 25.02H66.6152C66.1752 26.7 65.9552 27.6 65.9552 27.72C66.5952 27.88 67.1152 27.96 67.5152 27.96C67.9152 27.92 68.3752 27.7 68.8952 27.3C69.8152 26.42 70.4952 24.92 70.9352 22.8ZM70.7552 31.44L68.5352 31.62C67.2952 31.62 66.3152 31.5 65.5952 31.26L65.7752 32.4C65.8952 35.72 66.8152 37.9 68.5352 38.94C69.0152 39.14 69.4152 39.24 69.7352 39.24C70.0552 39.24 70.4752 39.08 70.9952 38.76C71.1552 38.6 71.2952 38.38 71.4152 38.1C71.4552 37.74 71.6552 37.58 72.0152 37.62C73.6552 35.54 74.8952 34.72 75.7352 35.16C76.5752 35.72 76.9952 36.16 76.9952 36.48C76.9952 36.64 76.8952 36.82 76.6952 37.02V37.38C76.6952 37.78 76.4352 38.5 75.9152 39.54C75.4352 40.58 74.9152 41.46 74.3552 42.18C74.0752 42.78 73.7152 43.2 73.2752 43.44C71.9952 44.24 70.6352 44.56 69.1952 44.4C68.8752 44.36 68.6552 44.28 68.5352 44.16C68.2152 44.08 67.9752 44.06 67.8152 44.1L67.3352 44.04C66.9752 44.04 66.6752 43.96 66.4352 43.8C66.0352 43.56 65.7552 43.44 65.5952 43.44C64.5552 43.04 63.9152 42.74 63.6752 42.54C63.4752 42.34 63.2952 42.2 63.1352 42.12C62.9752 42.04 62.5952 41.62 61.9952 40.86C61.4752 40.42 61.1752 40.14 61.0952 40.02C60.8552 39.66 60.6352 39.4 60.4352 39.24C60.2752 39.08 60.1752 38.72 60.1352 38.16C59.9752 37.96 59.8952 37.7 59.8952 37.38L59.6552 36.9C59.6552 36.62 59.5352 36.4 59.2952 36.24C59.0552 36 58.9352 35.7 58.9352 35.34V34.86C58.7752 34.78 58.7352 34.54 58.8152 34.14V32.58L58.7552 32.04V31.62C58.7152 31.46 58.7552 31.12 58.8752 30.6L58.8152 30.06C58.8552 30.02 58.9152 29.7 58.9952 29.1C59.1552 28.26 59.3352 27.74 59.5352 27.54V27C59.5752 26.88 59.5952 26.72 59.5952 26.52C59.5952 26.32 59.6352 26.1 59.7152 25.86C59.8352 25.62 60.1552 24.72 60.6752 23.16L61.6352 21.06C61.9152 20.46 62.3552 19.8 62.9552 19.08C62.9952 18.88 63.1552 18.52 63.4352 18L64.2152 17.28C64.4552 16.92 64.8152 16.66 65.2952 16.5C65.8552 16.22 66.2752 16.08 66.5552 16.08L68.2352 15.84C68.4352 15.88 68.5752 15.9 68.6552 15.9H69.4352C70.3152 15.98 71.0352 16.16 71.5952 16.44C72.7952 16.8 73.6752 17.26 74.2352 17.82C75.4752 19.22 76.0952 20.56 76.0952 21.84C76.0952 23.12 75.8952 24.22 75.4952 25.14C74.4952 27.42 73.7752 28.86 73.3352 29.46C72.6152 30.78 71.7552 31.44 70.7552 31.44ZM94.203 26.28C94.123 25.52 94.103 25.02 94.143 24.78V23.22L94.443 20.7C94.443 20.62 94.763 19.5 95.403 17.34C95.643 16.86 95.943 16.36 96.303 15.84C96.543 15.4 97.063 15.1 97.863 14.94C98.063 14.74 99.043 14.86 100.803 15.3C101.043 15.54 101.203 16.86 101.283 19.26L101.223 21.84V25.2L100.923 27.66L100.743 31.92C100.863 32.12 100.883 32.42 100.803 32.82C100.763 33.22 100.803 33.94 100.923 34.98C101.203 36.9 101.543 38.02 101.943 38.34C102.023 38.42 102.363 38.38 102.963 38.22C102.963 38.22 103.383 37.4 104.223 35.76L104.883 33.72V33.66L105.123 33.12C105.243 32.36 105.463 31.72 105.783 31.2C105.703 30.76 106.023 29.56 106.743 27.6L106.683 27.06L106.863 26.1L106.683 24C106.443 22.72 106.323 21.78 106.323 21.18L106.083 18.96C106.083 18.32 106.203 17.3 106.443 15.9C106.603 15.66 106.803 15.5 107.043 15.42C107.283 15.3 107.923 15.1 108.963 14.82C109.203 14.86 109.503 14.92 109.863 15C110.263 15.04 110.663 15.18 111.063 15.42C111.543 15.5 111.843 15.64 111.963 15.84C112.083 16.12 112.203 17.2 112.323 19.08C112.443 20.16 112.503 21.12 112.503 21.96C112.623 23.32 112.683 24.56 112.683 25.68L112.743 26.82V27.66C112.663 28.42 112.643 29.24 112.683 30.12C112.763 30.96 112.803 31.42 112.803 31.5C112.923 33.5 112.983 34.86 112.983 35.58C113.063 38.62 113.083 40.34 113.043 40.74C113.043 41.1 113.083 41.36 113.163 41.52L113.043 43.38C113.043 44.86 112.943 46.2 112.743 47.4C112.743 47.88 112.703 48.32 112.623 48.72C112.463 49.6 112.323 50.48 112.203 51.36L111.543 52.44C111.263 52.68 111.123 52.82 111.123 52.86C111.123 52.94 111.103 53 111.063 53.04C110.943 53.28 110.283 53.8 109.083 54.6C108.763 54.72 108.443 54.88 108.123 55.08C107.843 55.32 107.323 55.52 106.563 55.68C105.243 55.84 103.863 55.66 102.423 55.14L100.983 54.66C98.743 53.54 97.543 52.86 97.383 52.62C97.263 52.42 97.203 52.24 97.203 52.08C96.603 50.56 96.663 49.44 97.383 48.72C98.103 48 99.223 48.12 100.743 49.08C100.783 49.16 101.443 49.58 102.723 50.34C103.643 50.7 104.303 50.92 104.703 51L105.543 50.82L106.023 50.22L106.443 49.5C106.443 49.42 106.563 49.2 106.803 48.84C106.803 48.6 106.943 47.98 107.223 46.98C107.183 46.78 107.203 46.38 107.283 45.78C107.363 45.18 107.403 44.76 107.403 44.52V42.96C107.483 42.76 107.483 42.14 107.403 41.1C107.443 41.1 107.463 40.92 107.463 40.56C107.463 40.12 107.423 39.62 107.343 39.06C107.143 39.62 106.843 40.3 106.443 41.1L105.423 42.06C105.263 42.38 105.063 42.58 104.823 42.66C104.583 42.74 104.003 42.74 103.083 42.66C103.083 42.7 102.903 42.78 102.543 42.9C101.663 42.94 101.003 42.9 100.563 42.78C100.123 42.78 99.783 42.74 99.543 42.66C98.983 42.66 98.463 42.44 97.983 42C96.783 41.76 95.843 40.5 95.163 38.22C94.843 35.7 94.683 34.2 94.683 33.72C94.723 33.2 94.663 32.4 94.503 31.32V30C94.423 29.88 94.343 29.32 94.263 28.32C94.183 27.28 94.163 26.6 94.203 26.28ZM132.36 27.48L132.06 25.92C132.06 25.8 132.02 25.66 131.94 25.5C131.9 25.34 131.84 25.04 131.76 24.6C131.44 24.36 131.22 24.18 131.1 24.06L130.8 23.58L130.62 23.04C130.42 22.92 130.3 22.76 130.26 22.56C130.26 22.32 130.18 22.14 130.02 22.02C129.9 21.86 129.8 21.72 129.72 21.6C129.64 21.44 129.56 21.34 129.48 21.3C129.12 21.06 128.64 21.04 128.04 21.24C127.44 21.44 127.08 21.72 126.96 22.08C126.28 23.6 125.94 24.58 125.94 25.02C125.38 26.94 125.22 28.3 125.46 29.1C125.38 30.38 125.54 32.14 125.94 34.38V35.04C126.3 35.52 126.64 36.16 126.96 36.96C127.36 37.48 127.62 37.86 127.74 38.1C127.9 38.3 128 38.42 128.04 38.46C128.44 38.74 128.68 38.94 128.76 39.06C129.08 38.9 129.3 38.78 129.42 38.7V38.28C129.62 38.12 129.8 38 129.96 37.92C129.92 37.92 130.06 37.78 130.38 37.5L130.68 37.2C131.28 35.92 131.58 35.26 131.58 35.22C131.58 35.14 131.56 35 131.52 34.8C131.36 34.44 131.46 34.16 131.82 33.96C131.82 33.96 132.06 33.26 132.54 31.86V31.5C132.62 31.26 132.58 31.08 132.42 30.96V30.54C132.5 30.38 132.54 30.22 132.54 30.06C132.7 29.42 132.76 29.04 132.72 28.92C132.72 28.8 132.74 28.66 132.78 28.5C132.82 28.3 132.88 28.16 132.96 28.08C133.08 27.92 132.88 27.72 132.36 27.48ZM123.84 16.14C124.2 16.14 124.46 16.1 124.62 16.02C124.82 15.9 125.16 15.76 125.64 15.6C126.16 15.44 127.36 15.44 129.24 15.6C130.28 15.8 131.44 16.32 132.72 17.16C134.04 17.8 135.1 18.68 135.9 19.8C137.02 22.76 137.64 25.34 137.76 27.54C137.84 30.9 137.52 33.68 136.8 35.88C135.8 38.4 135.14 39.88 134.82 40.32C134.74 40.84 134.42 41.52 133.86 42.36C133.66 42.36 133.5 42.38 133.38 42.42C133.38 42.46 133.26 42.58 133.02 42.78C132.82 43.02 132.52 43.14 132.12 43.14C131.6 43.26 131.28 43.36 131.16 43.44C131.08 43.56 130.88 43.62 130.56 43.62L129.06 43.74H127.44C126.36 43.74 125.5 43.6 124.86 43.32L123.06 42.12L122.46 41.4C122.34 41.4 122.26 41.36 122.22 41.28C122.22 41.16 122.2 41.06 122.16 40.98C121.8 40.7 121.62 40.38 121.62 40.02C121.18 39.34 120.96 38.86 120.96 38.58C120.96 38.3 120.9 38.1 120.78 37.98C120.78 37.38 120.6 36.5 120.24 35.34L120.12 34.5V33.84C120.08 33.24 119.92 32.54 119.64 31.74C119.72 31.66 119.72 31.44 119.64 31.08C119.64 30.16 119.66 29.54 119.7 29.22L119.52 28.44C119.64 28.2 119.68 27.98 119.64 27.78C119.64 27.58 119.7 27.28 119.82 26.88V26.46L120.06 24.36C120.06 24.08 120.1 23.86 120.18 23.7V23.28C120.26 23.28 120.32 23.08 120.36 22.68L120.66 22.2L120.72 21.72C120.72 21.6 120.7 21.48 120.66 21.36L120.96 20.46C120.96 20.38 121.1 20.14 121.38 19.74C121.38 19.54 121.52 19.24 121.8 18.84C121.8 18.64 121.9 18.4 122.1 18.12C122.1 17.76 122.32 17.3 122.76 16.74C123.16 16.34 123.52 16.14 123.84 16.14ZM154.056 33.84C154.056 33.68 154.096 33.54 154.176 33.42C154.296 33.3 154.456 33.08 154.656 32.76C154.656 32.48 154.856 31.48 155.256 29.76C155.616 28.36 156.056 26.74 156.576 24.9C156.696 24.78 156.756 24.56 156.756 24.24L157.356 21.42C157.356 20.42 157.616 19.82 158.136 19.62C158.536 19.22 159.096 19.12 159.816 19.32C160.536 19.52 161.276 19.96 162.036 20.64C162.196 20.72 162.356 20.76 162.516 20.76L163.356 21.48C163.276 21.64 163.236 22.46 163.236 23.94C163.236 25.38 163.256 26.26 163.296 26.58V27.6C163.296 28.12 163.316 28.46 163.356 28.62V29.34L163.296 30.48C163.456 31.28 163.476 32.44 163.356 33.96V35.82C163.316 35.94 163.316 36.14 163.356 36.42C163.396 36.66 163.436 36.92 163.476 37.2C163.436 37.28 163.416 37.44 163.416 37.68V38.16C163.496 38.64 163.516 38.96 163.476 39.12L163.596 40.92C163.756 41.4 163.896 42.06 164.016 42.9C163.976 43.1 163.976 43.48 164.016 44.04C163.816 44.52 163.356 44.76 162.636 44.76C161.916 44.68 161.376 44.46 161.016 44.1C160.816 44.06 160.556 43.94 160.236 43.74C160.116 43.74 159.936 43.68 159.696 43.56C159.496 43.32 159.296 43.16 159.096 43.08C157.936 41.76 157.256 40.24 157.056 38.52C156.976 38.44 156.936 38.34 156.936 38.22C156.616 39.02 155.856 40.38 154.656 42.3C154.256 42.78 153.976 43.14 153.816 43.38C153.656 43.66 153.536 43.84 153.456 43.92C153.176 44.48 152.336 44.54 150.936 44.1C150.336 43.9 149.956 43.8 149.796 43.8L147.936 43.26C147.136 42.86 146.436 42.34 145.836 41.7C145.676 41.7 145.496 41.62 145.296 41.46C145.096 41.26 144.976 41.08 144.936 40.92L144.216 39.78C143.736 39.34 143.336 38.66 143.016 37.74C142.976 37.26 142.916 36.84 142.836 36.48V36.12L142.776 35.7L142.896 34.2L143.436 30.9C143.596 30.74 143.676 30.44 143.676 30L143.856 28.86C144.056 28.58 144.156 28.24 144.156 27.84C144.236 27.72 144.296 27.44 144.336 27C144.456 26.84 144.516 26.62 144.516 26.34C144.556 26.06 144.676 25.56 144.876 24.84C145.116 24.36 145.236 23.7 145.236 22.86C145.236 21.98 145.396 20.98 145.716 19.86C146.516 18.78 147.696 18.5 149.256 19.02C149.536 19.02 149.956 19.22 150.516 19.62C151.116 19.98 151.556 20.22 151.836 20.34C152.156 20.66 152.356 20.9 152.436 21.06C152.276 21.22 152.176 21.44 152.136 21.72C150.936 25.92 150.216 29.26 149.976 31.74C149.936 32.18 149.836 32.74 149.676 33.42C149.556 34.1 149.436 34.8 149.316 35.52C148.996 37.44 149.376 38.44 150.456 38.52C150.856 38.56 151.236 38.48 151.596 38.28C151.956 38.08 152.156 37.82 152.196 37.5C153.316 35.34 153.936 34.12 154.056 33.84ZM188.744 30.66C188.504 31.22 188.384 31.64 188.384 31.92C188.384 32.2 188.304 32.62 188.144 33.18C187.944 33.58 187.984 34.22 188.264 35.1C188.264 35.82 188.344 36.6 188.504 37.44C188.664 38.36 188.904 39.04 189.224 39.48L190.004 39.54C189.924 39.46 190.024 39.36 190.304 39.24C190.744 39.08 191.004 38.94 191.084 38.82C191.204 38.66 191.504 38.38 191.984 37.98C192.504 37.58 192.884 37.16 193.124 36.72C193.324 36.2 193.684 35.62 194.204 34.98C194.964 33.46 195.664 31.02 196.304 27.66C196.624 26.78 196.784 26.12 196.784 25.68C196.824 25.2 196.724 24.68 196.484 24.12L195.524 23.4C194.764 23.4 194.104 23.68 193.544 24.24L192.404 25.14C192.044 25.38 191.804 25.62 191.684 25.86C191.124 26.22 190.524 27 189.884 28.2C189.884 28.24 189.804 28.36 189.644 28.56C189.524 28.76 189.384 29.14 189.224 29.7C188.944 30.06 188.784 30.38 188.744 30.66ZM184.004 20.04C184.004 19.16 184.084 18.4 184.244 17.76C184.404 17.12 184.484 16.28 184.484 15.24C184.484 14.2 184.544 12.9 184.664 11.34V10.38C184.624 10.26 184.664 9.9 184.784 9.3C184.664 8.1 184.684 7.24 184.844 6.72V6.12C184.764 5.4 184.844 4.86 185.084 4.5C185.524 3.98 186.164 3.54 187.004 3.18C187.884 2.82 188.584 2.62 189.104 2.58H189.404C189.564 2.66 189.704 2.72 189.824 2.76C189.984 2.76 190.324 2.88 190.844 3.12C191.324 3.44 191.524 3.94 191.444 4.62C191.484 4.86 191.504 5.12 191.504 5.4C191.504 5.68 191.264 7.7 190.784 11.46C190.304 15.18 190.004 17.7 189.884 19.02L189.824 21.54C189.984 21.54 190.124 21.44 190.244 21.24C190.284 21.08 190.464 20.92 190.784 20.76C190.864 20.6 191.004 20.48 191.204 20.4C191.444 20.28 191.684 20.12 191.924 19.92C193.044 18.88 194.604 18.36 196.604 18.36C197.244 18.36 197.784 18.5 198.224 18.78L199.124 19.26L201.104 19.98C201.744 20.38 202.104 20.7 202.184 20.94L202.784 23.28C202.864 23.72 202.904 24.56 202.904 25.8C202.904 27 202.784 27.92 202.544 28.56C202.544 28.96 202.424 29.52 202.184 30.24C202.184 30.64 202.044 31.52 201.764 32.88C201.484 34.24 201.064 35.5 200.504 36.66C200.304 36.86 200.104 37.24 199.904 37.8C199.744 38.32 199.264 38.98 198.464 39.78C198.104 39.78 197.764 40.1 197.444 40.74C197.044 41.14 196.284 41.6 195.164 42.12C193.644 42.76 192.704 43.08 192.344 43.08C191.984 43.08 191.624 43.1 191.264 43.14C190.944 43.22 190.504 43.26 189.944 43.26C189.424 43.26 188.964 43.32 188.564 43.44C188.164 43.6 187.504 43.5 186.584 43.14C186.464 43.02 185.884 42.78 184.844 42.42C183.844 42.06 183.304 41.52 183.224 40.8C182.904 40.44 182.724 39.98 182.684 39.42C182.644 38.82 182.584 38.36 182.504 38.04C182.464 37.72 182.444 37.12 182.444 36.24C182.404 35.6 182.504 33.9 182.744 31.14C182.864 29.5 183.084 27.42 183.404 24.9C183.524 24.3 183.724 22.68 184.004 20.04ZM219.385 24.3C219.105 22.7 218.325 21.96 217.045 22.08C216.325 22.12 215.705 22.6 215.185 23.52C214.465 24.92 214.145 26.74 214.225 28.98C214.345 31.18 214.505 32.78 214.705 33.78C214.945 34.74 215.345 35.58 215.905 36.3C216.225 36.86 216.705 37.12 217.345 37.08C218.465 37.08 219.285 36.14 219.805 34.26L220.285 32.82C220.485 32.62 220.525 32.42 220.405 32.22C220.805 31.22 221.025 30.04 221.065 28.68C220.665 28.4 220.425 28.14 220.345 27.9C220.105 27.22 219.985 26.76 219.985 26.52C219.705 26.32 219.545 25.94 219.505 25.38C219.465 24.82 219.425 24.46 219.385 24.3ZM208.405 29.94L208.645 26.88C208.925 24.12 209.765 21.76 211.165 19.8C212.525 18.16 214.445 17.32 216.925 17.28H217.285C219.605 17.28 221.285 17.78 222.325 18.78C223.445 19.66 224.265 20.62 224.785 21.66C225.345 22.7 225.705 23.46 225.865 23.94C226.025 24.42 226.125 25.12 226.165 26.04C226.245 27.76 225.905 28.74 225.145 28.98C225.705 32.78 225.365 35.8 224.125 38.04C223.725 38.96 223.145 39.96 222.385 41.04C221.825 41.76 220.825 42.16 219.385 42.24C217.945 42.24 216.685 42.16 215.605 42C214.565 41.84 213.405 41.34 212.125 40.5C210.845 39.62 209.945 38.2 209.425 36.24C208.865 34.36 208.525 32.26 208.405 29.94ZM231.794 24.3C231.794 23.94 231.754 23.52 231.674 23.04V22.62C231.714 22.34 231.694 22.04 231.614 21.72C231.614 21.32 231.654 20.96 231.734 20.64C231.734 19.84 231.834 19.32 232.034 19.08C232.034 18.88 232.314 18.42 232.874 17.7C233.034 17.54 233.334 17.28 233.774 16.92C234.414 16.72 234.854 16.6 235.094 16.56C235.254 16.4 235.794 16.46 236.714 16.74C237.114 16.78 237.734 16.92 238.574 17.16C238.854 17.24 239.214 17.56 239.654 18.12C239.574 18.28 239.434 18.88 239.234 19.92C239.074 20.92 239.014 21.74 239.054 22.38C239.294 22.18 239.714 21.76 240.314 21.12C240.914 20.48 241.234 20.14 241.274 20.1C242.314 19.62 243.334 19.28 244.334 19.08C245.774 18.96 246.714 19.06 247.154 19.38C247.514 19.5 247.794 19.68 247.994 19.92C248.354 20.24 248.654 20.8 248.894 21.6C249.134 22.36 249.114 22.84 248.834 23.04C248.594 23.24 247.794 23.4 246.434 23.52C246.354 23.52 246.074 23.68 245.594 24L242.474 26.46C241.834 26.78 241.394 27.06 241.154 27.3L240.014 29.4C239.974 29.48 239.934 30 239.894 30.96C239.854 31.92 239.854 32.62 239.894 33.06C239.934 33.46 239.934 34.8 239.894 37.08V39.66C239.894 41.06 239.874 41.86 239.834 42.06C239.794 42.3 239.634 42.7 239.354 43.26C239.234 43.46 238.854 43.56 238.214 43.56C236.654 44.72 235.654 44.66 235.214 43.38L234.434 42.9C234.114 42.74 233.914 42.54 233.834 42.3C233.514 41.86 233.354 41.6 233.354 41.52L233.114 40.68L232.754 39.96C232.634 39.92 232.534 39.16 232.454 37.68C232.374 36.16 232.334 35.24 232.334 34.92C232.334 34.56 232.294 34.18 232.214 33.78C232.494 33.5 232.614 33.02 232.574 32.34C232.574 31.66 232.534 31.14 232.454 30.78C232.374 30.38 232.374 30.14 232.454 30.06C232.534 29.94 232.514 29.38 232.394 28.38C232.274 28.22 232.254 27.92 232.334 27.48L231.794 24.3ZM262.744 19.98C262.664 19.78 262.384 19.7 261.904 19.74C261.464 19.78 261.124 20.02 260.884 20.46C259.244 23.06 258.364 25.84 258.244 28.8C259.604 29.12 260.764 28.52 261.724 27C262.964 23.08 263.304 20.74 262.744 19.98ZM258.064 43.8L257.464 43.68L256.624 42.84C256.384 42.84 256.204 42.74 256.084 42.54C255.644 42.02 254.844 40.98 253.684 39.42L252.784 36.12C252.784 35.48 252.664 34.92 252.424 34.44C252.024 32.64 251.784 31.62 251.704 31.38C251.624 31.1 251.564 30.36 251.524 29.16C251.524 27.96 251.584 27.08 251.704 26.52C251.824 25.76 252.564 23.88 253.924 20.88C254.284 20.52 254.504 20.04 254.584 19.44L255.544 18.06C256.424 17.02 257.364 16.26 258.364 15.78C258.364 15.7 259.044 15.5 260.404 15.18C260.684 15.14 261.324 15.24 262.324 15.48C264.724 16.04 266.224 16.74 266.824 17.58L267.004 17.88C267.764 18.96 268.204 20.62 268.324 22.86C268.204 23.86 268.104 24.7 268.024 25.38C267.944 26.06 267.504 27.3 266.704 29.1C266.104 30.22 265.524 31.12 264.964 31.8C264.084 32.44 263.484 32.76 263.164 32.76C263.004 32.84 262.664 32.88 262.144 32.88H260.764C260.644 32.84 260.384 32.82 259.984 32.82C259.584 32.82 259.004 32.72 258.244 32.52C258.244 33.4 258.484 34.66 258.964 36.3C259.484 37.9 259.904 38.88 260.224 39.24C261.064 39.88 261.724 40.3 262.204 40.5C262.684 40.7 263.324 40.74 264.124 40.62C264.924 40.46 265.504 40.18 265.864 39.78L267.424 37.86C268.424 36.5 269.444 36.38 270.484 37.5C270.964 38.02 271.144 38.54 271.024 39.06C270.944 39.54 270.544 40.52 269.824 42C269.224 42.96 268.584 43.76 267.904 44.4C266.664 45.04 265.924 45.36 265.684 45.36C265.324 45.4 264.764 45.34 264.004 45.18C263.604 45.38 262.924 45.36 261.964 45.12C261.964 45.04 261.844 44.98 261.604 44.94C261.404 44.94 261.124 44.88 260.764 44.76L260.884 44.7C260.804 44.7 260.564 44.7 260.164 44.7L258.484 43.8H258.064ZM281.403 31.74C281.403 32.26 281.363 32.9 281.283 33.66C281.203 34.42 281.403 35.64 281.883 37.32C282.083 38.48 282.283 39.22 282.483 39.54C282.763 39.54 283.023 39.24 283.263 38.64C283.263 38.6 283.403 38.32 283.683 37.8C283.803 37.76 284.203 37.2 284.883 36.12C285.123 35.64 285.363 35.16 285.603 34.68C285.723 33.84 286.003 33.1 286.443 32.46C286.883 31.78 287.223 31.2 287.463 30.72C287.703 30.2 287.803 29.52 287.763 28.68C287.763 28.36 287.623 27.4 287.343 25.8C287.263 25.6 287.103 25.16 286.863 24.48C286.663 23.76 286.383 23.26 286.023 22.98C285.703 22.66 285.363 22.52 285.003 22.56C284.643 22.6 284.203 23.16 283.683 24.24C283.043 25.52 282.583 26.76 282.303 27.96C282.023 29.16 281.843 29.88 281.763 30.12C281.643 30.48 281.583 30.8 281.583 31.08L281.403 31.74ZM288.963 0.779998C289.803 0.659997 290.303 0.619998 290.463 0.659999C290.663 0.659999 291.083 0.599999 291.723 0.479998C292.563 1.48 293.083 2.22 293.283 2.7L293.703 4.26C294.023 4.58 294.183 4.88 294.183 5.16C294.263 5.76 294.323 6.28 294.363 6.72C294.443 7.12 294.483 7.68 294.483 8.4C294.483 9.44 294.343 11.8 294.063 15.48C293.783 19.12 293.523 21.74 293.283 23.34L293.643 26.64C294.243 29.92 294.623 31.7 294.783 31.98C295.023 33.5 295.523 34.9 296.283 36.18L296.403 36.66L297.303 38.16C297.583 38.76 297.703 39.36 297.663 39.96C297.663 40.56 297.603 40.98 297.483 41.22C296.923 42.34 296.363 42.94 295.803 43.02C295.523 43.14 295.083 43.14 294.483 43.02C293.963 43.02 293.583 42.9 293.343 42.66C293.223 42.66 293.063 42.64 292.863 42.6C292.263 42.72 291.883 42.58 291.723 42.18C291.483 41.94 291.203 41.52 290.883 40.92C290.603 40.28 290.263 39.74 289.863 39.3L289.563 38.64C289.403 37.92 289.303 37.56 289.263 37.56C289.263 37.52 289.243 37.42 289.203 37.26L287.103 40.56C287.023 40.84 286.503 41.64 285.543 42.96L284.763 43.62C284.283 43.86 283.583 43.92 282.663 43.8C282.583 43.84 282.243 43.86 281.643 43.86L278.283 43.26C277.563 42.78 276.943 42.02 276.423 40.98C276.103 40.42 275.943 39.96 275.943 39.6C275.943 39.2 275.763 38.42 275.403 37.26L275.283 36.36V36L275.223 35.16C275.303 35 275.263 34.66 275.103 34.14L275.043 33.6V32.58C275.043 32.34 275.103 31.88 275.223 31.2C275.263 30.68 275.263 30.1 275.223 29.46C275.223 28.78 275.243 28.3 275.283 28.02C275.203 27.62 275.223 27.28 275.343 27C275.263 26.72 275.283 26.24 275.403 25.56C275.403 25.12 275.743 24.12 276.423 22.56C276.303 21.92 276.583 21.2 277.263 20.4C277.263 20.36 277.463 20.06 277.863 19.5C277.983 19.38 278.283 19.22 278.763 19.02L280.203 18.06C281.723 17.62 283.123 17.54 284.403 17.82L286.803 18.66C286.883 18.06 286.863 16.08 286.743 12.72C286.743 12.24 286.803 11.2 286.923 9.6C287.083 7.96 287.203 6.38 287.283 4.86L288.003 2.34C288.003 1.9 288.083 1.58 288.243 1.38L288.963 0.779998ZM13.8286 100.42L13.5286 99.88C13.0486 99.88 12.1486 100.86 10.8286 102.82C9.26859 104.94 8.16859 107.04 7.52859 109.12C7.08859 110.36 6.82859 111.38 6.74859 112.18C6.74859 113.34 6.98859 114.1 7.46859 114.46C7.66859 114.46 7.88859 114.32 8.12859 114.04C8.40859 113.76 8.56859 113.56 8.60859 113.44C8.88859 113.28 9.24859 112.82 9.68859 112.06C10.2086 111.3 10.4886 110.9 10.5286 110.86L11.0686 109.72L12.0886 107.98C12.0086 107.98 12.1286 107.52 12.4486 106.6C12.9286 105.76 13.1886 105.12 13.2286 104.68L13.8286 100.42ZM1.16859 114.94C1.04859 113.22 1.06859 111.9 1.22859 110.98C2.14859 107.62 2.86859 105.06 3.38859 103.3C3.38859 103.26 3.52859 102.76 3.80859 101.8C4.24859 100.4 4.64859 99.48 5.00859 99.04C5.00859 98.92 5.16859 98.6 5.48859 98.08C5.48859 97.72 5.92859 97.1 6.80859 96.22L7.46859 95.5C8.18859 94.86 9.20859 94.54 10.5286 94.54C11.0086 94.46 11.5686 94.48 12.2086 94.6C13.3686 95.12 14.6886 95.9 16.1686 96.94L16.7686 97.3C17.0886 97.38 17.3886 97.48 17.6686 97.6C17.8286 97.6 18.1686 97.68 18.6886 97.84L19.4686 98.44C19.8286 98.68 20.0486 99.02 20.1286 99.46C19.8886 99.7 19.7686 100.48 19.7686 101.8C19.6086 103.52 19.7286 105.54 20.1286 107.86C20.2886 110.02 20.6686 112.3 21.2686 114.7C21.2686 114.9 21.4086 115.44 21.6886 116.32C22.0086 117.2 22.1486 117.76 22.1086 118C22.1086 119 21.1686 119.5 19.2886 119.5C17.4486 119.38 16.1686 118.58 15.4486 117.1C15.4086 116.94 15.2686 116.62 15.0286 116.14C14.5486 115.66 14.2886 115.26 14.2486 114.94L14.1286 114.1C13.9686 113.98 13.8686 113.82 13.8286 113.62C13.3486 114.3 12.7486 115 12.0286 115.72L10.7686 117.7L10.2886 118.18C10.2486 118.34 9.82859 118.52 9.02859 118.72C8.22859 118.96 7.64859 119 7.28859 118.84C7.08859 118.84 6.80859 118.8 6.44859 118.72L3.80859 117.64C3.20859 117.48 2.76859 117.2 2.48859 116.8C1.96859 116.48 1.70859 116.3 1.70859 116.26C1.30859 115.58 1.12859 115.14 1.16859 114.94ZM33.4495 110.92C33.8095 110.08 34.1895 109.1 34.5895 107.98L35.9095 104.62L36.4495 103.6C28.3295 113.2 28.4095 113.1 36.6895 103.3L38.2495 100.06C38.3695 99.94 38.4695 99.68 38.5495 99.28L40.1095 96.94L41.3095 95.86C41.5495 95.74 41.8095 95.54 42.0895 95.26C42.1695 95.34 42.4895 95.26 43.0495 95.02C43.4095 95.02 44.1295 95.08 45.2095 95.2L46.4095 95.62L49.1095 97.24C49.6695 97.8 49.9095 98.4 49.8295 99.04C49.7895 99.52 49.5695 100.84 49.1695 103C48.8495 104.72 48.3895 106.7 47.7895 108.94C47.4695 110.74 47.3695 112.04 47.4895 112.84C47.6095 113.64 47.6695 114.1 47.6695 114.22C47.7495 114.46 47.8495 114.8 47.9695 115.24C48.1295 115.68 48.1695 115.92 48.0895 115.96C48.3695 116 48.5095 116.2 48.5095 116.56C48.8295 117.4 48.9295 117.96 48.8095 118.24C48.7295 118.56 48.4695 118.9 48.0295 119.26C47.6295 119.62 46.8895 119.8 45.8095 119.8C45.1695 119.72 44.6495 119.68 44.2495 119.68C43.8895 119.68 43.4295 119.54 42.8695 119.26C41.7095 118.42 41.0495 117.56 40.8895 116.68C40.6895 116.12 40.5695 115.7 40.5295 115.42C40.4895 115.14 40.4695 114.94 40.4695 114.82C40.2695 113.62 40.2895 112.38 40.5295 111.1C40.5695 110.62 40.7495 109.64 41.0695 108.16C41.3895 106.64 41.7095 105.44 42.0295 104.56C42.0295 103.68 42.0095 103.22 41.9695 103.18L39.6295 107.74C39.3895 108.38 39.1695 108.86 38.9695 109.18C38.7695 109.38 38.6695 109.62 38.6695 109.9C38.3495 110.22 38.0495 110.86 37.7695 111.82C37.7695 112.1 37.7495 112.3 37.7095 112.42C37.6695 112.54 37.5095 112.84 37.2295 113.32C36.9895 113.76 36.8095 114.18 36.6895 114.58C36.6095 114.98 36.3695 115.42 35.9695 115.9C35.9695 116.06 35.7095 116.88 35.1895 118.36C35.1495 118.52 34.7295 118.66 33.9295 118.78L32.7895 118.66C32.5095 118.58 31.8495 118.38 30.8095 118.06C29.7695 117.74 29.1895 117.58 29.0695 117.58C28.9895 117.58 28.9095 117.54 28.8295 117.46C28.1495 117.3 27.7295 116.74 27.5695 115.78V114.82C27.7695 114.58 27.7895 114.12 27.6295 113.44C27.7095 113.04 27.7695 112.58 27.8095 112.06C27.6895 111.98 27.6695 111.84 27.7495 111.64C27.8295 110.36 27.8695 109.46 27.8695 108.94V107.5C27.9495 106.18 28.0495 104.76 28.1695 103.24C28.2895 101.72 28.3495 100.74 28.3495 100.3V99.1C28.2695 98.9 28.2495 98.44 28.2895 97.72C28.2095 96.96 28.1095 96.5 27.9895 96.34C27.8695 96.14 27.8295 95.86 27.8695 95.5L28.2895 94.48C28.9295 93.96 30.0095 93.86 31.5295 94.18C32.2095 94.3 33.1495 94.7 34.3495 95.38C34.4295 95.5 34.6295 95.76 34.9495 96.16C35.1895 96.16 35.3295 96.5 35.3695 97.18C35.3295 97.54 35.3095 97.84 35.3095 98.08C35.2695 98.12 35.0495 99.04 34.6495 100.84C33.7695 106.4 33.3295 109.42 33.3295 109.9C33.3295 110.38 33.3695 110.72 33.4495 110.92ZM67.0988 102.76L66.9788 101.86C66.8588 101.7 66.7788 101.5 66.7388 101.26C66.7388 100.98 66.6788 100.56 66.5588 100C66.5588 99.28 66.3788 98.64 66.0188 98.08C65.8988 97.76 65.4188 97.66 64.5788 97.78C64.0188 98.34 63.3588 99.92 62.5988 102.52C62.5988 102.56 62.5388 102.72 62.4188 103C62.2588 103.36 62.0988 103.96 61.9388 104.8C61.7788 105.6 61.6788 106.06 61.6388 106.18C61.5588 106.42 61.5188 106.64 61.5188 106.84C61.4388 107 61.3988 107.26 61.3988 107.62L61.1588 108.76C60.9988 109 60.9588 109.3 61.0387 109.66V110.5C61.0788 110.62 61.0588 110.96 60.9788 111.52V112.36L61.0988 114.4C61.0988 114.88 61.4988 115.66 62.2988 116.74C62.6188 116.82 62.8188 116.8 62.8988 116.68C63.6988 115.88 64.1388 115.06 64.2188 114.22L64.3988 113.44C64.5988 113.24 64.7588 112.64 64.8788 111.64L65.1788 110.62C65.1788 110.26 65.2588 109.88 65.4188 109.48C65.5788 109.08 65.6788 108.78 65.7188 108.58C65.7188 108.26 65.9788 107.46 66.4988 106.18C66.4588 106.06 66.4388 105.94 66.4388 105.82V105.4C66.8788 103.68 67.0988 102.8 67.0988 102.76ZM74.7188 83.38C74.7188 84.78 74.6388 85.64 74.4788 85.96L74.0588 89.86V91.9C74.0188 92.58 73.9988 93.6 73.9988 94.96C73.9988 96.32 74.0188 97.46 74.0588 98.38C74.1388 99.26 74.0988 100 73.9388 100.6C74.0188 100.68 74.0588 100.82 74.0588 101.02L74.1188 101.5L74.0588 102.88V105.4C74.0988 105.84 74.1188 106.6 74.1188 107.68C74.1988 108.6 74.2388 109.34 74.2388 109.9C74.2388 110.46 74.2988 111.02 74.4188 111.58V112.36L74.6588 114.82V116.86C74.7388 117.14 74.7788 117.42 74.7788 117.7C74.7788 117.94 74.8588 118.36 75.0188 118.96C75.2188 119.6 75.2988 120.18 75.2588 120.7C74.1388 122.02 72.7188 122.34 70.9988 121.66C70.6388 121.62 70.2588 121.42 69.8587 121.06C69.4988 120.7 69.2788 120.34 69.1988 119.98L69.1388 118.78C68.9388 118.74 68.8188 118.4 68.7788 117.76C68.6188 117.52 68.5588 117.32 68.5988 117.16C68.7188 116.96 68.6188 116.62 68.2988 116.14L67.6387 117.28C67.4388 117.6 67.2188 117.8 66.9788 117.88L66.7388 118.6C66.1788 119.2 65.7588 119.7 65.4788 120.1L64.7588 120.82C63.7988 121.02 62.4788 120.94 60.7988 120.58C60.3988 120.58 60.0788 120.54 59.8388 120.46H59.4188C59.3388 120.54 58.8988 120.36 58.0988 119.92C57.4188 119.64 57.0588 119.38 57.0188 119.14L57.3788 119.2C56.8188 118.96 56.6188 118.58 56.7788 118.06C56.2988 117.86 55.9988 117.42 55.8788 116.74L55.3388 114.7C55.2588 114.18 55.2788 113.62 55.3988 113.02C55.3188 112.86 55.4188 112.32 55.6988 111.4L55.5188 110.86L55.3988 109.78C55.2788 109.62 55.2988 109.26 55.4588 108.7L55.0988 108.1C55.0988 106.5 55.1588 105.52 55.2788 105.16L55.3388 104.38C55.1388 104.06 55.1988 103.38 55.5188 102.34L56.3588 99.58C56.3588 99.5 56.4188 99.14 56.5388 98.5C56.7388 97.5 56.9788 96.86 57.2588 96.58L58.3388 94.78C58.5388 94.58 58.7588 94.28 58.9988 93.88C59.3988 93.16 60.2388 92.8 61.5188 92.8C62.8388 92.6 64.9588 92.76 67.8788 93.28V91.18L67.6988 88.66C67.6988 87.46 67.6588 86.36 67.5788 85.36C67.5388 84.36 67.5588 83.56 67.6387 82.96C67.6788 82.92 67.8788 82.1 68.2388 80.5C68.5988 78.9 69.1988 77.7 70.0388 76.9C70.3188 76.74 70.8188 76.64 71.5388 76.6C72.2988 76.56 72.7588 76.6 72.9188 76.72C73.0788 76.84 73.2988 76.94 73.5788 77.02C74.6988 77.34 75.2588 78.36 75.2588 80.08L74.7188 83.38ZM94.4264 112.06C94.4264 111.9 94.4664 111.3 94.5464 110.26C94.2264 109.78 94.0664 108.7 94.0664 107.02C94.0264 102.74 94.0064 100.56 94.0064 100.48C94.0464 100.4 94.0064 100.26 93.8864 100.06C93.7664 99.82 93.7064 99.58 93.7064 99.34V98.68C93.5464 97.36 93.6264 96.36 93.9464 95.68C94.0264 95.28 94.2464 94.98 94.6064 94.78C94.8864 94.38 95.2864 94.18 95.8064 94.18C96.3264 94.18 96.7664 94.24 97.1264 94.36C97.4064 94.24 97.6664 94.4 97.9064 94.84C98.3864 95.04 98.6464 95.14 98.6864 95.14L98.9864 95.38C99.3064 95.38 99.5064 95.44 99.5864 95.56C99.7064 95.64 99.7864 95.88 99.8264 96.28L100.366 101.5V102.52C100.446 103 100.486 103.38 100.486 103.66L100.546 106.48L100.786 106.54C101.026 105.58 101.286 104.78 101.566 104.14C101.886 103.46 102.086 102.96 102.166 102.64C102.206 102.32 102.346 102.02 102.586 101.74C102.826 101.26 102.946 100.92 102.946 100.72C102.946 100.52 103.106 100.26 103.426 99.94C103.786 99.06 104.126 98.42 104.446 98.02L104.626 97.54C104.786 97.3 104.906 97.1 104.986 96.94C105.426 96.58 105.746 96.26 105.946 95.98L106.426 95.62C106.506 95.62 106.586 95.52 106.666 95.32C106.746 95.08 107.266 94.94 108.226 94.9C108.986 94.78 109.626 94.78 110.146 94.9C110.506 94.9 110.726 94.92 110.806 94.96L111.166 95.32L111.646 95.44C112.326 95.8 112.766 96.66 112.966 98.02C112.966 100.74 113.066 102.54 113.266 103.42C113.546 105.7 114.006 107.74 114.646 109.54C115.326 111.34 115.986 112.54 116.626 113.14C117.466 114.22 117.626 115.36 117.106 116.56C116.746 117.16 116.286 117.48 115.726 117.52C115.166 117.56 114.766 117.54 114.526 117.46C114.206 117.46 113.946 117.4 113.746 117.28C113.306 117.4 112.926 117.3 112.606 116.98C112.246 116.98 111.966 116.8 111.766 116.44C110.366 114.6 109.546 113.46 109.306 113.02C109.106 112.58 108.946 112.28 108.826 112.12C108.746 111.96 108.686 111.82 108.646 111.7C108.606 111.58 108.546 111.4 108.466 111.16C108.386 110.8 108.226 110.48 107.986 110.2C107.786 109.88 107.686 109.64 107.686 109.48C107.566 109.28 107.486 108.96 107.446 108.52C107.206 108.36 107.086 108.16 107.086 107.92C106.886 107.8 106.746 107.44 106.666 106.84L106.426 105.28L106.306 105.22C104.306 107.74 103.166 110.6 102.886 113.8C102.806 114.6 102.726 115.12 102.646 115.36C102.446 115.68 102.526 116.18 102.886 116.86V117.22C102.886 117.38 102.666 117.68 102.226 118.12C101.746 118.16 101.466 118.18 101.386 118.18H100.726C100.646 118.18 100.486 118.24 100.246 118.36C100.006 118.36 99.8064 118.4 99.6464 118.48C99.4864 118.56 99.2664 118.54 98.9864 118.42C98.2664 118.38 97.8464 118.32 97.7264 118.24C97.6064 118.2 97.4264 118.14 97.1864 118.06C96.9464 118.02 96.7464 117.9 96.5864 117.7C96.3864 117.7 96.2464 117.58 96.1664 117.34C95.1264 116.3 94.6064 115.42 94.6064 114.7V114.28L94.5464 113.8C94.6264 113.16 94.5864 112.58 94.4264 112.06ZM132.605 98.8C132.765 98.2 132.745 97.44 132.545 96.52C132.265 96.28 131.885 96.16 131.405 96.16C130.805 96.16 130.265 96.72 129.785 97.84C129.145 98.8 128.665 99.86 128.345 101.02H128.285C127.845 102.7 127.625 103.6 127.625 103.72C128.265 103.88 128.785 103.96 129.185 103.96C129.585 103.92 130.045 103.7 130.565 103.3C131.485 102.42 132.165 100.92 132.605 98.8ZM132.425 107.44L130.205 107.62C128.965 107.62 127.985 107.5 127.265 107.26L127.445 108.4C127.565 111.72 128.485 113.9 130.205 114.94C130.685 115.14 131.085 115.24 131.405 115.24C131.725 115.24 132.145 115.08 132.665 114.76C132.825 114.6 132.965 114.38 133.085 114.1C133.125 113.74 133.325 113.58 133.685 113.62C135.325 111.54 136.565 110.72 137.405 111.16C138.245 111.72 138.665 112.16 138.665 112.48C138.665 112.64 138.565 112.82 138.365 113.02V113.38C138.365 113.78 138.105 114.5 137.585 115.54C137.105 116.58 136.585 117.46 136.025 118.18C135.745 118.78 135.385 119.2 134.945 119.44C133.665 120.24 132.305 120.56 130.865 120.4C130.545 120.36 130.325 120.28 130.205 120.16C129.885 120.08 129.645 120.06 129.485 120.1L129.005 120.04C128.645 120.04 128.345 119.96 128.105 119.8C127.705 119.56 127.425 119.44 127.265 119.44C126.225 119.04 125.585 118.74 125.345 118.54C125.145 118.34 124.965 118.2 124.805 118.12C124.645 118.04 124.265 117.62 123.665 116.86C123.145 116.42 122.845 116.14 122.765 116.02C122.525 115.66 122.305 115.4 122.105 115.24C121.945 115.08 121.845 114.72 121.805 114.16C121.645 113.96 121.565 113.7 121.565 113.38L121.325 112.9C121.325 112.62 121.205 112.4 120.965 112.24C120.725 112 120.605 111.7 120.605 111.34V110.86C120.445 110.78 120.405 110.54 120.485 110.14V108.58L120.425 108.04V107.62C120.385 107.46 120.425 107.12 120.545 106.6L120.485 106.06C120.525 106.02 120.585 105.7 120.665 105.1C120.825 104.26 121.005 103.74 121.205 103.54V103C121.245 102.88 121.265 102.72 121.265 102.52C121.265 102.32 121.305 102.1 121.385 101.86C121.505 101.62 121.825 100.72 122.345 99.16L123.305 97.06C123.585 96.46 124.025 95.8 124.625 95.08C124.665 94.88 124.825 94.52 125.105 94L125.885 93.28C126.125 92.92 126.485 92.66 126.965 92.5C127.525 92.22 127.945 92.08 128.225 92.08L129.905 91.84C130.105 91.88 130.245 91.9 130.325 91.9H131.105C131.985 91.98 132.705 92.16 133.265 92.44C134.465 92.8 135.345 93.26 135.905 93.82C137.145 95.22 137.765 96.56 137.765 97.84C137.765 99.12 137.565 100.22 137.165 101.14C136.165 103.42 135.445 104.86 135.005 105.46C134.285 106.78 133.425 107.44 132.425 107.44ZM154.258 95.98C154.178 95.78 153.898 95.7 153.418 95.74C152.978 95.78 152.638 96.02 152.398 96.46C150.758 99.06 149.878 101.84 149.758 104.8C151.118 105.12 152.278 104.52 153.238 103C154.478 99.08 154.818 96.74 154.258 95.98ZM149.578 119.8L148.978 119.68L148.138 118.84C147.898 118.84 147.718 118.74 147.598 118.54C147.158 118.02 146.358 116.98 145.198 115.42L144.298 112.12C144.298 111.48 144.178 110.92 143.938 110.44C143.538 108.64 143.298 107.62 143.218 107.38C143.138 107.1 143.078 106.36 143.038 105.16C143.038 103.96 143.098 103.08 143.218 102.52C143.338 101.76 144.078 99.88 145.438 96.88C145.798 96.52 146.018 96.04 146.098 95.44L147.058 94.06C147.938 93.02 148.878 92.26 149.878 91.78C149.878 91.7 150.558 91.5 151.918 91.18C152.198 91.14 152.838 91.24 153.838 91.48C156.238 92.04 157.738 92.74 158.338 93.58L158.518 93.88C159.278 94.96 159.718 96.62 159.838 98.86C159.718 99.86 159.618 100.7 159.538 101.38C159.458 102.06 159.018 103.3 158.218 105.1C157.618 106.22 157.038 107.12 156.478 107.8C155.598 108.44 154.998 108.76 154.678 108.76C154.518 108.84 154.178 108.88 153.658 108.88H152.278C152.158 108.84 151.898 108.82 151.498 108.82C151.098 108.82 150.518 108.72 149.758 108.52C149.758 109.4 149.998 110.66 150.478 112.3C150.998 113.9 151.418 114.88 151.738 115.24C152.578 115.88 153.238 116.3 153.718 116.5C154.198 116.7 154.838 116.74 155.638 116.62C156.438 116.46 157.018 116.18 157.378 115.78L158.938 113.86C159.938 112.5 160.958 112.38 161.998 113.5C162.478 114.02 162.658 114.54 162.538 115.06C162.458 115.54 162.058 116.52 161.338 118C160.738 118.96 160.098 119.76 159.418 120.4C158.178 121.04 157.438 121.36 157.198 121.36C156.838 121.4 156.278 121.34 155.518 121.18C155.118 121.38 154.438 121.36 153.478 121.12C153.478 121.04 153.358 120.98 153.118 120.94C152.918 120.94 152.638 120.88 152.278 120.76L152.398 120.7C152.318 120.7 152.078 120.7 151.678 120.7L149.998 119.8H149.578ZM172.377 107.38C171.617 111.46 171.277 113.7 171.357 114.1C171.437 114.46 171.557 114.68 171.717 114.76C171.917 114.84 172.117 114.84 172.317 114.76C173.077 114.44 173.617 113.82 173.937 112.9L175.317 110.74C175.397 110.66 175.497 110.4 175.617 109.96C175.937 109.4 176.217 108.78 176.457 108.1C176.817 107.74 177.077 107.28 177.237 106.72C177.797 105.6 178.097 104.98 178.137 104.86C178.337 104.66 178.457 104.12 178.497 103.24C178.577 102.32 178.597 101.82 178.557 101.74C178.357 101.02 178.217 100.54 178.137 100.3C177.937 100.18 177.477 100.04 176.757 99.88C176.077 99.68 175.677 99.66 175.557 99.82C175.477 99.82 175.277 100.08 174.957 100.6C174.677 101.12 174.397 101.82 174.117 102.7C173.677 103.66 173.437 104.16 173.397 104.2L172.377 107.38ZM185.097 96.88L184.917 100.72C184.917 100.88 184.897 101.16 184.857 101.56L184.917 105.94L185.277 109.48C185.277 109.88 185.337 110.42 185.457 111.1C185.577 111.78 185.637 112.18 185.637 112.3C185.837 114.34 186.057 115.6 186.297 116.08C186.537 117.12 186.637 117.82 186.597 118.18C186.557 118.54 186.337 118.94 185.937 119.38C184.257 119.94 183.197 120.08 182.757 119.8C182.237 119.72 181.737 119.48 181.257 119.08C180.777 118.68 180.457 118.36 180.297 118.12C180.257 118.08 180.037 117.34 179.637 115.9C179.637 115.86 179.577 115.42 179.457 114.58C179.257 114.26 179.197 113.82 179.277 113.26C178.597 114.46 178.257 115.1 178.257 115.18C178.257 115.22 178.237 115.28 178.197 115.36C178.157 115.4 178.097 115.52 178.017 115.72C177.937 115.88 177.737 116.2 177.417 116.68C177.257 116.96 177.017 117.4 176.697 118C175.817 119.08 174.537 119.62 172.857 119.62C170.937 119.62 169.317 119.24 167.997 118.48C167.917 118.48 167.857 118.44 167.817 118.36C167.617 118.2 167.277 118 166.797 117.76C166.197 117.28 165.697 116.42 165.297 115.18C165.257 115.14 165.237 115 165.237 114.76L165.177 114.28C165.177 113.68 165.137 113.3 165.057 113.14C165.057 112.5 165.277 111.24 165.717 109.36L167.757 103.78C167.757 103.38 167.937 102.72 168.297 101.8C168.817 100.28 169.277 99.22 169.677 98.62C169.677 98.22 170.237 97.34 171.357 95.98C171.517 95.58 171.837 95.32 172.317 95.2C173.717 94.88 174.937 94.88 175.977 95.2C176.177 95.2 176.377 95.24 176.577 95.32C176.817 95.4 177.077 95.48 177.357 95.56C177.637 95.64 178.097 95.86 178.737 96.22C178.937 96.42 179.157 96.56 179.397 96.64C179.957 92.28 180.257 89.8 180.297 89.2C180.377 88.64 180.637 87.54 181.077 85.9L181.317 84.04C181.597 83 181.977 82.12 182.457 81.4C182.497 81.04 182.737 80.72 183.177 80.44C183.737 79.88 184.637 80.06 185.877 80.98C185.957 81.06 186.317 81.3 186.957 81.7C187.437 81.86 187.737 82.06 187.857 82.3C188.017 82.98 188.057 83.7 187.977 84.46C187.977 85.38 187.837 86.54 187.557 87.94C187.277 89.34 186.977 90.48 186.657 91.36C186.377 92.68 185.857 94.52 185.097 96.88ZM207.25 94.72C208.33 93.4 209.81 92.7 211.69 92.62C214.77 92.5 217.05 93.26 218.53 94.9C220.05 96.54 220.85 98.16 220.93 99.76C221.05 101.36 220.65 102.22 219.73 102.34C218.41 102.38 217.55 102.2 217.15 101.8C216.79 101.84 216.33 101.58 215.77 101.02C215.53 100.9 215.21 100.44 214.81 99.64L214.15 98.14C213.83 97.42 213.43 97.02 212.95 96.94C212.35 97.18 212.05 97.78 212.05 98.74C212.21 100.62 213.11 102.42 214.75 104.14C214.75 104.14 214.77 104.2 214.81 104.32C214.89 104.4 215.19 104.72 215.71 105.28C218.87 108.76 220.51 111.56 220.63 113.68C220.63 115.04 220.35 115.94 219.79 116.38C218.07 118.42 215.83 119.48 213.07 119.56C210.31 119.64 208.03 118.78 206.23 116.98C205.75 116.5 205.51 116.04 205.51 115.6C205.27 114.84 205.19 114.34 205.27 114.1C205.15 112.98 205.15 112.14 205.27 111.58C205.51 110.3 206.45 109.64 208.09 109.6C208.69 109.6 209.07 109.96 209.23 110.68C209.75 112.72 210.23 114.06 210.67 114.7C211.15 115.34 211.91 115.64 212.95 115.6C214.27 115.52 214.89 114.78 214.81 113.38C214.77 111.98 214.11 110.68 212.83 109.48C212.43 109 212.03 108.64 211.63 108.4C211.27 108.12 211.03 107.92 210.91 107.8C210.87 107.68 210.77 107.56 210.61 107.44C209.81 106.8 208.79 105.74 207.55 104.26C206.35 102.78 205.71 101.4 205.63 100.12C205.47 97.84 206.01 96.04 207.25 94.72ZM231.001 107.56C230.801 108.96 230.701 110.26 230.701 111.46C230.701 112.66 230.781 113.5 230.941 113.98C230.981 114.34 231.061 114.58 231.181 114.7C231.381 114.78 231.661 114.78 232.021 114.7C232.581 114.46 232.861 114.2 232.861 113.92C234.021 112.8 234.681 112.06 234.841 111.7C235.001 111.34 235.121 111.12 235.201 111.04C235.361 110.84 235.461 110.58 235.501 110.26C235.701 110.06 235.821 109.92 235.861 109.84C235.821 109.72 235.901 109.38 236.101 108.82C235.941 108.54 235.941 108.34 236.101 108.22C236.301 108.06 236.401 107.64 236.401 106.96L236.641 105.04C236.641 104.8 236.661 104.62 236.701 104.5C236.661 104.34 236.661 104.1 236.701 103.78C236.781 103.42 236.801 102.86 236.761 102.1C236.721 101.34 236.581 100.84 236.341 100.6L236.221 100.24C236.141 99.96 235.821 99.76 235.261 99.64L234.781 99.4C234.901 99.64 234.781 99.96 234.421 100.36C232.861 102.48 231.721 104.88 231.001 107.56ZM226.861 101.14C226.901 100.82 227.021 100.52 227.221 100.24L227.161 99.88C227.321 99.32 227.421 99 227.461 98.92C227.501 98.84 227.561 98.84 227.641 98.92C227.601 98.76 227.621 98.64 227.701 98.56C227.821 98.2 228.001 97.78 228.241 97.3C228.521 96.82 228.681 96.52 228.721 96.4C228.961 95.72 229.341 95.28 229.861 95.08C229.861 94.76 230.421 94.54 231.541 94.42C232.821 93.98 233.861 93.9 234.661 94.18C235.061 93.94 235.661 94.04 236.461 94.48C237.061 94.72 237.701 95.08 238.381 95.56C238.981 95.96 239.481 96.4 239.881 96.88C240.441 97.12 240.801 97.52 240.961 98.08C242.081 100.76 242.641 103.12 242.641 105.16L242.521 105.82C242.521 106.38 242.461 106.74 242.341 106.9C242.261 107.02 242.221 107.22 242.221 107.5C242.301 107.54 242.301 107.72 242.221 108.04C242.221 108.24 241.901 109.54 241.261 111.94L240.301 113.92C240.301 114 240.201 114.14 240.001 114.34V114.7C240.001 114.78 239.901 114.94 239.701 115.18C239.301 115.98 238.901 116.58 238.501 116.98C237.861 118.02 237.321 118.78 236.881 119.26L236.401 119.92L235.681 119.86C235.561 120.06 235.441 120.16 235.321 120.16C235.241 120.16 234.961 120.08 234.481 119.92L234.961 119.86C234.641 119.9 234.381 119.88 234.181 119.8C234.021 119.72 233.861 119.68 233.701 119.68C232.941 119.28 232.401 119.14 232.081 119.26C231.921 119.26 231.321 119.1 230.281 118.78L228.601 118.48L227.281 118C226.921 117.8 226.581 117.56 226.261 117.28C226.141 117.04 226.081 116.84 226.081 116.68L225.721 115.48C225.721 115.4 225.681 115.2 225.601 114.88V113.32C225.681 112.92 225.721 112.54 225.721 112.18C225.641 111.98 225.641 111.56 225.721 110.92V110.26C225.721 110.14 225.741 109.92 225.781 109.6C225.741 109.4 225.761 108.96 225.841 108.28C225.921 107.6 225.961 106.98 225.961 106.42C225.961 105.9 226.041 105.18 226.201 104.26C226.321 103.98 226.401 103.48 226.441 102.76C226.481 102 226.621 101.46 226.861 101.14ZM273.794 114.34C273.794 114.02 273.634 113.72 273.314 113.44C272.994 113.12 272.834 112.78 272.834 112.42C272.834 112.02 272.754 111.38 272.594 110.5C272.674 110.34 272.654 109.76 272.534 108.76C272.574 108.68 272.554 108.1 272.474 107.02C272.434 105.94 272.414 104.98 272.414 104.14L271.814 105.22C270.534 108.34 269.894 109.98 269.894 110.14L268.514 114.34L268.154 115.78C267.834 116.82 267.774 117.88 267.974 118.96C268.054 119.32 267.634 119.7 266.714 120.1C266.474 120.1 265.874 119.98 264.914 119.74C264.594 119.74 264.274 119.74 263.954 119.74C263.674 119.78 262.854 119.58 261.494 119.14C261.494 118.98 261.174 118.64 260.534 118.12L260.354 113.98C260.354 113.1 260.474 111.74 260.714 109.9V108.4L260.954 106.42L261.254 102.7V101.5C260.174 104.58 259.454 106.58 259.094 107.5C259.094 107.98 258.654 109.6 257.774 112.36C256.934 115.8 256.594 118.02 256.754 119.02C256.754 119.26 256.674 119.44 256.514 119.56C256.394 119.72 256.054 119.94 255.494 120.22C254.614 120.22 253.274 120.04 251.474 119.68L250.394 119.2C250.034 119.08 249.714 118.6 249.434 117.76C249.154 116.92 248.994 116.2 248.954 115.6C248.794 115.4 248.714 114.94 248.714 114.22L248.654 113.5C248.374 109.22 248.234 106.28 248.234 104.68C248.314 104.44 248.354 104.04 248.354 103.48V101.8C248.354 101.08 248.394 100.14 248.474 98.98C248.594 97.82 248.654 96.98 248.654 96.46L248.594 94.48C248.754 93.84 249.594 93.44 251.114 93.28C251.794 93.28 252.374 93.4 252.854 93.64C253.654 94.16 254.154 94.78 254.354 95.5C254.594 96.22 254.734 97.14 254.774 98.26C254.814 99.38 254.814 100.32 254.774 101.08C254.734 103.24 254.834 104.76 255.074 105.64C255.314 105.16 255.634 104.32 256.034 103.12C256.114 103.04 256.534 101.98 257.294 99.94L258.554 96.16C259.474 94.92 259.974 94.28 260.054 94.24C260.174 94.16 260.494 94.1 261.014 94.06C261.614 94.02 262.294 94.18 263.054 94.54C263.854 94.86 264.274 95.04 264.314 95.08C264.394 95.08 264.754 95.28 265.394 95.68C265.674 95.92 265.934 96.38 266.174 97.06C266.414 97.74 266.534 98.3 266.534 98.74C266.614 100.34 266.654 101.18 266.654 101.26V101.98C266.574 104.38 266.634 105.7 266.834 105.94C267.114 104.9 267.654 103.56 268.454 101.92L269.054 100.36L270.254 97.9C270.214 97.78 270.434 97.22 270.914 96.22L271.514 94.36C271.874 93.12 272.874 92.14 274.514 91.42C274.834 91.42 275.594 91.64 276.794 92.08C277.594 92.08 278.314 92.62 278.954 93.7C279.234 94.14 279.374 94.72 279.374 95.44C279.374 95.6 279.314 96.58 279.194 98.38V100.3C279.114 100.78 279.094 101.2 279.134 101.56L279.074 103.42V106.96C279.074 107.44 279.054 107.76 279.014 107.92L279.194 111.28C279.354 111.56 279.434 111.96 279.434 112.48C279.674 114.48 280.154 116 280.874 117.04L281.294 117.82C280.374 119.42 278.934 119.9 276.974 119.26C276.814 118.98 276.594 118.74 276.314 118.54C276.074 118.34 275.734 118.02 275.294 117.58C275.294 117.54 275.014 117.12 274.454 116.32C274.454 115.84 274.234 115.18 273.794 114.34ZM298.718 98.8C298.878 98.2 298.858 97.44 298.658 96.52C298.378 96.28 297.998 96.16 297.518 96.16C296.918 96.16 296.378 96.72 295.898 97.84C295.258 98.8 294.778 99.86 294.458 101.02H294.398C293.958 102.7 293.738 103.6 293.738 103.72C294.378 103.88 294.898 103.96 295.298 103.96C295.698 103.92 296.158 103.7 296.678 103.3C297.598 102.42 298.278 100.92 298.718 98.8ZM298.538 107.44L296.318 107.62C295.078 107.62 294.098 107.5 293.378 107.26L293.558 108.4C293.678 111.72 294.598 113.9 296.318 114.94C296.798 115.14 297.198 115.24 297.518 115.24C297.838 115.24 298.258 115.08 298.778 114.76C298.938 114.6 299.078 114.38 299.198 114.1C299.238 113.74 299.438 113.58 299.798 113.62C301.438 111.54 302.678 110.72 303.518 111.16C304.358 111.72 304.778 112.16 304.778 112.48C304.778 112.64 304.678 112.82 304.478 113.02V113.38C304.478 113.78 304.218 114.5 303.698 115.54C303.218 116.58 302.698 117.46 302.138 118.18C301.858 118.78 301.498 119.2 301.058 119.44C299.778 120.24 298.418 120.56 296.978 120.4C296.658 120.36 296.438 120.28 296.318 120.16C295.998 120.08 295.758 120.06 295.598 120.1L295.118 120.04C294.758 120.04 294.458 119.96 294.218 119.8C293.818 119.56 293.538 119.44 293.378 119.44C292.338 119.04 291.698 118.74 291.458 118.54C291.258 118.34 291.078 118.2 290.918 118.12C290.758 118.04 290.378 117.62 289.778 116.86C289.258 116.42 288.958 116.14 288.878 116.02C288.638 115.66 288.418 115.4 288.218 115.24C288.058 115.08 287.958 114.72 287.918 114.16C287.758 113.96 287.678 113.7 287.678 113.38L287.438 112.9C287.438 112.62 287.318 112.4 287.078 112.24C286.838 112 286.718 111.7 286.718 111.34V110.86C286.558 110.78 286.518 110.54 286.598 110.14V108.58L286.538 108.04V107.62C286.498 107.46 286.538 107.12 286.658 106.6L286.598 106.06C286.638 106.02 286.698 105.7 286.778 105.1C286.938 104.26 287.118 103.74 287.318 103.54V103C287.358 102.88 287.378 102.72 287.378 102.52C287.378 102.32 287.418 102.1 287.498 101.86C287.618 101.62 287.938 100.72 288.458 99.16L289.418 97.06C289.698 96.46 290.138 95.8 290.738 95.08C290.778 94.88 290.938 94.52 291.218 94L291.998 93.28C292.238 92.92 292.598 92.66 293.078 92.5C293.638 92.22 294.058 92.08 294.338 92.08L296.018 91.84C296.218 91.88 296.358 91.9 296.438 91.9H297.218C298.098 91.98 298.818 92.16 299.378 92.44C300.578 92.8 301.458 93.26 302.018 93.82C303.258 95.22 303.878 96.56 303.878 97.84C303.878 99.12 303.678 100.22 303.278 101.14C302.278 103.42 301.558 104.86 301.118 105.46C300.398 106.78 299.538 107.44 298.538 107.44ZM30.6518 155.18C30.6918 155.14 31.0718 155.08 31.7918 155C32.9518 154.8 33.7518 154.88 34.1918 155.24C34.6718 155.56 35.0118 155.92 35.2118 156.32C35.2918 157.6 35.1118 159.26 34.6718 161.3C34.2318 162.62 33.8518 163.6 33.5318 164.24L32.9318 165.14C32.8118 165.46 32.5518 165.8 32.1518 166.16C31.7518 166.52 31.4518 166.7 31.2518 166.7C31.0918 166.66 30.7918 166.52 30.3518 166.28C29.9518 166 29.7118 165.8 29.6318 165.68C29.5918 165.56 29.5518 165.42 29.5118 165.26L29.2118 164.06L28.0118 162.56C27.7718 162.08 27.6518 161.6 27.6518 161.12C27.5318 160 27.6718 159.14 28.0718 158.54C28.0718 158.46 28.1318 158.26 28.2518 157.94C28.4518 157.06 29.2518 156.14 30.6518 155.18ZM28.8518 182.12C28.8518 181.76 28.9118 181.28 29.0318 180.68C29.1918 180.04 29.2318 179.6 29.1518 179.36C29.1118 179.12 29.1118 178.44 29.1518 177.32C29.2718 176.84 29.2918 176.3 29.2118 175.7C28.9318 174.82 28.8518 174.18 28.9718 173.78C29.0918 173.38 29.3518 172.94 29.7518 172.46C30.1518 171.94 30.5918 171.58 31.0718 171.38C31.5518 171.18 32.2718 171.2 33.2318 171.44C33.4718 171.56 33.8718 171.96 34.4318 172.64C34.5518 172.76 34.6918 173.22 34.8518 174.02C35.0518 174.82 35.1718 175.7 35.2118 176.66C35.2918 177.58 35.3518 178.94 35.3918 180.74C35.4318 182.5 35.5118 184.88 35.6318 187.88C35.7518 190.84 35.7718 192.68 35.6918 193.4C35.6518 194.12 35.3918 194.66 34.9118 195.02C34.4718 195.42 34.0718 195.5 33.7118 195.26C33.3918 195.06 33.0518 194.92 32.6918 194.84C32.0518 194.84 31.4918 194.58 31.0118 194.06C30.8518 194.02 30.4718 193.84 29.8718 193.52C29.2718 193.16 28.8918 192.52 28.7318 191.6C28.5318 191.2 28.4718 189.9 28.5518 187.7V185.54L28.8518 183.5V182.12ZM47.3655 186.92C47.7255 186.08 48.1055 185.1 48.5055 183.98L49.8255 180.62L50.3655 179.6C42.2455 189.2 42.3255 189.1 50.6055 179.3L52.1655 176.06C52.2855 175.94 52.3855 175.68 52.4655 175.28L54.0255 172.94L55.2255 171.86C55.4655 171.74 55.7255 171.54 56.0055 171.26C56.0855 171.34 56.4055 171.26 56.9655 171.02C57.3255 171.02 58.0455 171.08 59.1255 171.2L60.3255 171.62L63.0255 173.24C63.5855 173.8 63.8255 174.4 63.7455 175.04C63.7055 175.52 63.4855 176.84 63.0855 179C62.7655 180.72 62.3055 182.7 61.7055 184.94C61.3855 186.74 61.2855 188.04 61.4055 188.84C61.5255 189.64 61.5855 190.1 61.5855 190.22C61.6655 190.46 61.7655 190.8 61.8855 191.24C62.0455 191.68 62.0855 191.92 62.0055 191.96C62.2855 192 62.4255 192.2 62.4255 192.56C62.7455 193.4 62.8455 193.96 62.7255 194.24C62.6455 194.56 62.3855 194.9 61.9455 195.26C61.5455 195.62 60.8055 195.8 59.7255 195.8C59.0855 195.72 58.5655 195.68 58.1655 195.68C57.8055 195.68 57.3455 195.54 56.7855 195.26C55.6255 194.42 54.9655 193.56 54.8055 192.68C54.6055 192.12 54.4855 191.7 54.4455 191.42C54.4055 191.14 54.3855 190.94 54.3855 190.82C54.1855 189.62 54.2055 188.38 54.4455 187.1C54.4855 186.62 54.6655 185.64 54.9855 184.16C55.3055 182.64 55.6255 181.44 55.9455 180.56C55.9455 179.68 55.9255 179.22 55.8855 179.18L53.5455 183.74C53.3055 184.38 53.0855 184.86 52.8855 185.18C52.6855 185.38 52.5855 185.62 52.5855 185.9C52.2655 186.22 51.9655 186.86 51.6855 187.82C51.6855 188.1 51.6655 188.3 51.6255 188.42C51.5855 188.54 51.4255 188.84 51.1455 189.32C50.9055 189.76 50.7255 190.18 50.6055 190.58C50.5255 190.98 50.2855 191.42 49.8855 191.9C49.8855 192.06 49.6255 192.88 49.1055 194.36C49.0655 194.52 48.6455 194.66 47.8455 194.78L46.7055 194.66C46.4255 194.58 45.7655 194.38 44.7255 194.06C43.6855 193.74 43.1055 193.58 42.9855 193.58C42.9055 193.58 42.8255 193.54 42.7455 193.46C42.0655 193.3 41.6455 192.74 41.4855 191.78V190.82C41.6855 190.58 41.7055 190.12 41.5455 189.44C41.6255 189.04 41.6855 188.58 41.7255 188.06C41.6055 187.98 41.5855 187.84 41.6655 187.64C41.7455 186.36 41.7855 185.46 41.7855 184.94V183.5C41.8655 182.18 41.9655 180.76 42.0855 179.24C42.2055 177.72 42.2655 176.74 42.2655 176.3V175.1C42.1855 174.9 42.1655 174.44 42.2055 173.72C42.1255 172.96 42.0255 172.5 41.9055 172.34C41.7855 172.14 41.7455 171.86 41.7855 171.5L42.2055 170.48C42.8455 169.96 43.9255 169.86 45.4455 170.18C46.1255 170.3 47.0655 170.7 48.2655 171.38C48.3455 171.5 48.5455 171.76 48.8655 172.16C49.1055 172.16 49.2455 172.5 49.2855 173.18C49.2455 173.54 49.2255 173.84 49.2255 174.08C49.1855 174.12 48.9655 175.04 48.5655 176.84C47.6855 182.4 47.2455 185.42 47.2455 185.9C47.2455 186.38 47.2855 186.72 47.3655 186.92ZM70.8148 170.72C71.8948 169.4 73.3748 168.7 75.2548 168.62C78.3348 168.5 80.6148 169.26 82.0948 170.9C83.6148 172.54 84.4148 174.16 84.4948 175.76C84.6148 177.36 84.2148 178.22 83.2948 178.34C81.9748 178.38 81.1148 178.2 80.7148 177.8C80.3548 177.84 79.8948 177.58 79.3348 177.02C79.0948 176.9 78.7748 176.44 78.3748 175.64L77.7148 174.14C77.3948 173.42 76.9948 173.02 76.5148 172.94C75.9148 173.18 75.6148 173.78 75.6148 174.74C75.7748 176.62 76.6748 178.42 78.3148 180.14C78.3148 180.14 78.3348 180.2 78.3748 180.32C78.4548 180.4 78.7548 180.72 79.2748 181.28C82.4348 184.76 84.0748 187.56 84.1948 189.68C84.1948 191.04 83.9148 191.94 83.3548 192.38C81.6348 194.42 79.3948 195.48 76.6348 195.56C73.8748 195.64 71.5948 194.78 69.7948 192.98C69.3148 192.5 69.0748 192.04 69.0748 191.6C68.8348 190.84 68.7548 190.34 68.8348 190.1C68.7148 188.98 68.7148 188.14 68.8348 187.58C69.0748 186.3 70.0148 185.64 71.6548 185.6C72.2548 185.6 72.6348 185.96 72.7948 186.68C73.3148 188.72 73.7948 190.06 74.2348 190.7C74.7148 191.34 75.4748 191.64 76.5148 191.6C77.8348 191.52 78.4548 190.78 78.3748 189.38C78.3348 187.98 77.6748 186.68 76.3948 185.48C75.9948 185 75.5948 184.64 75.1948 184.4C74.8348 184.12 74.5948 183.92 74.4748 183.8C74.4348 183.68 74.3348 183.56 74.1748 183.44C73.3748 182.8 72.3548 181.74 71.1148 180.26C69.9148 178.78 69.2748 177.4 69.1948 176.12C69.0348 173.84 69.5748 172.04 70.8148 170.72ZM103.325 176L103.205 174.62C103.205 173.98 103.025 173.44 102.665 173C102.505 172.92 102.345 172.72 102.185 172.4H102.125C102.125 172.36 102.025 172.32 101.825 172.28C101.625 172.2 101.465 172.2 101.345 172.28C101.145 172.36 100.545 172.9 99.5454 173.9L98.7654 175.64C98.3254 176.24 97.7654 177.42 97.0854 179.18C97.0454 179.22 97.0454 179.44 97.0854 179.84C97.1654 180.36 97.2854 181.66 97.4454 183.74C97.7654 186.7 97.9454 188.44 97.9854 188.96L98.6454 188.84C98.7654 188.72 99.0454 188.6 99.4854 188.48C100.045 187.84 100.465 187.38 100.745 187.1L101.945 185.18C101.945 184.98 102.065 184.6 102.305 184.04C102.585 183.44 102.785 182.9 102.905 182.42C102.905 182.34 102.945 182.02 103.025 181.46C103.145 180.62 103.205 179.8 103.205 179C103.325 179 103.365 178.9 103.325 178.7C103.325 178.5 103.325 178.26 103.325 177.98V176ZM89.6454 171.26C89.4054 169.98 89.2854 169.1 89.2854 168.62V168.14C89.2854 167.62 89.6254 167.14 90.3054 166.7L91.0854 166.34C91.1254 166.3 91.6854 166.22 92.7654 166.1C93.3254 166.1 93.6654 166.12 93.7854 166.16C93.9054 166.16 94.1654 166.26 94.5654 166.46C95.0054 166.66 95.3054 166.84 95.4654 167C95.7854 167.64 95.9454 168.26 95.9454 168.86V170.48L96.3654 170.12L96.9654 169.46C97.0454 169.3 97.3054 169.08 97.7454 168.8C98.1854 168.52 98.8454 168.32 99.7254 168.2C100.925 168 102.245 168.08 103.685 168.44C104.365 168.52 104.785 168.66 104.945 168.86C104.945 168.78 105.285 168.84 105.965 169.04C105.925 169.12 106.005 169.2 106.205 169.28C106.445 169.36 106.765 169.48 107.165 169.64L107.585 170.12L107.825 170.84C108.065 170.92 108.285 171.22 108.485 171.74L109.085 173.96C109.085 174.2 109.185 174.58 109.385 175.1V176.54C109.425 176.98 109.445 177.46 109.445 177.98C109.445 178.46 109.405 179.06 109.325 179.78V180.5L109.265 180.92V181.04C109.185 181.2 109.185 181.38 109.265 181.58C109.105 182.82 108.845 183.8 108.485 184.52L107.345 187.34C107.145 187.54 106.965 187.82 106.805 188.18C106.685 188.54 106.145 189.16 105.185 190.04C103.225 191.88 101.045 192.8 98.6454 192.8C98.5654 192.84 98.4254 192.96 98.2254 193.16C98.2254 193.32 98.2854 193.44 98.4054 193.52L98.6454 197.6C98.6454 198.6 98.6854 199.12 98.7654 199.16C98.8054 199.36 98.8654 200.02 98.9454 201.14C99.0254 202.26 99.1454 202.96 99.3054 203.24L99.4254 204.92V205.46C99.3454 206.1 99.1854 206.6 98.9454 206.96C98.7054 207.32 98.3254 207.56 97.8054 207.68C97.3254 207.8 96.7054 207.8 95.9454 207.68C95.2254 207.6 94.7854 207.44 94.6254 207.2C94.0654 206.44 93.6854 205.72 93.4854 205.04C93.1254 203.56 92.9454 202.16 92.9454 200.84C92.8254 200.12 92.7654 199.44 92.7654 198.8C92.6854 198.08 92.5654 197.52 92.4054 197.12C92.2454 196.72 92.1654 196.42 92.1654 196.22C91.8854 194.5 91.7454 193.56 91.7454 193.4C91.7454 192.96 91.6454 192.5 91.4454 192.02C91.2454 190.22 91.1454 189.12 91.1454 188.72L90.6054 182.24V181.04C90.4854 180.88 90.3654 179.76 90.2454 177.68C89.9654 177.16 89.7654 175.02 89.6454 171.26ZM122.868 160.04H123.048C124.448 160.12 125.348 160.54 125.748 161.3C126.188 162.02 126.348 162.72 126.228 163.4C126.148 164.08 125.608 164.92 124.608 165.92C123.648 166.92 122.768 167.4 121.968 167.36C121.728 167.36 121.248 167.24 120.528 167C119.848 166.76 119.488 166.62 119.448 166.58C119.408 166.42 119.288 166.3 119.088 166.22C118.048 165.82 117.468 164.8 117.348 163.16C117.348 163 117.468 162.88 117.708 162.8C117.548 162.8 117.528 162.56 117.648 162.08C117.928 161.2 118.548 160.62 119.508 160.34C120.748 160.1 121.868 160 122.868 160.04ZM122.748 175.22L121.728 185.24C121.728 185.48 121.728 185.72 121.728 185.96C121.728 186.16 121.748 186.34 121.788 186.5C121.748 186.66 121.728 186.86 121.728 187.1V191.42C121.888 192.78 121.888 193.58 121.728 193.82C121.488 193.9 121.208 194.02 120.888 194.18C120.568 194.38 119.948 194.42 119.028 194.3C118.148 194.22 117.508 194.08 117.108 193.88L116.388 193.7C115.988 193.7 115.728 193.52 115.608 193.16C115.088 192.84 114.808 192.42 114.768 191.9C114.648 191.7 114.788 191.42 115.188 191.06C115.148 190.86 115.068 190.58 114.948 190.22C114.828 189.82 114.788 189.46 114.828 189.14C114.948 188.94 114.888 188.64 114.648 188.24C114.648 187.8 114.708 187.3 114.828 186.74C114.988 186.58 115.028 186 114.948 185C115.228 184.6 115.368 184.04 115.368 183.32C115.208 182.68 115.268 182.04 115.548 181.4C115.828 180.76 115.988 180.12 116.028 179.48C116.108 178.48 116.288 177.5 116.568 176.54C116.568 176.14 116.748 175.5 117.108 174.62C117.508 173.74 117.768 173.22 117.888 173.06L118.848 172.1L119.928 171.68H119.988C120.468 171.52 120.948 171.54 121.428 171.74C122.588 172.18 123.288 172.52 123.528 172.76C123.368 172.92 123.268 173.16 123.228 173.48C123.188 173.8 123.148 174.08 123.108 174.32C122.948 174.52 122.828 174.82 122.748 175.22ZM128.593 189.86C129.353 184.66 129.733 181.98 129.733 181.82L130.033 180.14C130.153 180.02 130.213 179.12 130.213 177.44V176.24L130.333 174.98C130.213 174.14 130.153 173.48 130.153 173C129.993 172.24 130.073 171.48 130.393 170.72C130.993 169.92 132.013 169.68 133.453 170C133.973 170.16 134.433 170.4 134.833 170.72C135.393 170.92 135.793 171.12 136.033 171.32C136.353 171.44 136.513 172.18 136.513 173.54C136.993 173.06 138.053 172.52 139.693 171.92C139.933 171.92 140.433 171.84 141.193 171.68C141.953 171.48 142.593 171.38 143.113 171.38C143.633 171.38 144.033 171.44 144.313 171.56C145.113 172.04 145.553 172.36 145.633 172.52C145.713 172.64 145.793 172.84 145.873 173.12C145.993 173.4 146.033 173.54 145.993 173.54C146.353 173.9 146.453 174.3 146.293 174.74C145.933 175.26 145.373 175.56 144.613 175.64C143.893 175.64 142.533 176.24 140.533 177.44L138.733 178.34C137.173 179.42 136.313 180.02 136.153 180.14C135.473 188.74 135.033 193.5 134.833 194.42C134.713 194.78 134.433 195.14 133.993 195.5C133.553 195.86 133.013 195.8 132.373 195.32L131.533 195.02C130.853 194.74 130.253 194.26 129.733 193.58L129.013 192.62L128.653 191.6C128.653 191.36 128.633 191.12 128.593 190.88V189.86ZM160.278 176.78C160.238 175.9 160.038 175.24 159.678 174.8C159.318 174.32 158.658 174.04 157.698 173.96C157.418 174.16 157.038 174.84 156.558 176C156.118 177.12 155.838 178.32 155.718 179.6C155.318 181.52 155.118 183.44 155.118 185.36C155.158 187.32 155.478 188.76 156.078 189.68C156.158 189.84 156.238 189.9 156.318 189.86C156.518 189.86 156.838 189.46 157.278 188.66C159.398 184.82 160.398 180.86 160.278 176.78ZM162.138 188.24L161.238 190.58C161.238 190.66 160.658 191.52 159.498 193.16C159.138 193.92 158.458 194.34 157.458 194.42C156.498 194.5 155.558 194.4 154.638 194.12C153.398 193.68 152.458 193.16 151.818 192.56C151.178 191.96 150.538 190.96 149.898 189.56C149.298 188.12 148.978 186.94 148.938 186.02C148.738 184.7 148.638 183.86 148.638 183.5V182.06C148.638 180.62 148.698 179.78 148.818 179.54C148.858 179.38 148.958 178.96 149.118 178.28C149.318 176.6 149.798 175 150.558 173.48C152.038 170.56 153.558 169.06 155.118 168.98H155.418C155.498 169.02 155.618 169.04 155.778 169.04H156.558C157.958 169.16 158.818 169.28 159.138 169.4C159.738 169.56 160.258 169.64 160.698 169.64L162.258 169.94C162.738 169.9 163.358 170 164.118 170.24C164.918 170.48 165.338 170.66 165.378 170.78C165.458 170.9 165.578 171.34 165.738 172.1C165.898 172.86 165.998 173.42 166.038 173.78C166.118 174.1 166.178 174.44 166.218 174.8C166.538 177.72 167.058 180.44 167.778 182.96C167.818 183.08 167.858 183.26 167.898 183.5C167.938 183.74 168.078 184.22 168.318 184.94C168.558 185.62 168.738 186.2 168.858 186.68C168.978 187.16 169.198 187.8 169.518 188.6C169.758 189.2 170.118 189.9 170.598 190.7C171.478 191.94 171.018 192.9 169.218 193.58C168.978 193.66 168.558 193.7 167.958 193.7C167.838 193.7 167.458 193.5 166.818 193.1C166.418 193.1 166.038 192.88 165.678 192.44L165.198 192.32C164.918 192.04 164.678 191.9 164.478 191.9C164.398 191.82 163.678 190.2 162.318 187.04C162.198 187.48 162.138 187.88 162.138 188.24ZM178.678 172.82L178.738 172.28C177.898 172.2 177.298 172.14 176.938 172.1C176.618 172.02 176.078 171.94 175.318 171.86C174.558 171.78 173.958 171.66 173.518 171.5C172.678 171.22 172.198 170.5 172.078 169.34C171.958 168.14 172.338 167.4 173.218 167.12C174.018 166.92 174.578 166.82 174.898 166.82C175.218 166.82 175.818 166.78 176.698 166.7C177.138 166.46 177.738 166.32 178.498 166.28L179.398 166.04C179.398 166.08 179.558 166.04 179.878 165.92L180.178 164.66C180.178 164.02 180.358 163.38 180.718 162.74C180.718 162.46 180.978 161.68 181.498 160.4C181.498 160.24 181.858 159.08 182.578 156.92C182.738 156.72 183.338 156.26 184.378 155.54C185.018 155.22 185.918 155.44 187.078 156.2C187.718 156.48 188.158 156.86 188.398 157.34C188.158 157.58 188.038 158.14 188.038 159.02C187.998 159.3 187.718 160.78 187.198 163.46V165.14C187.518 165.18 188.038 165.28 188.758 165.44C189.518 165.6 190.418 165.78 191.458 165.98C193.458 166.38 194.718 167.18 195.238 168.38C195.438 169.26 195.398 169.88 195.118 170.24C194.838 170.6 194.158 170.86 193.078 171.02C192.198 171.06 191.038 171.08 189.598 171.08C188.198 171.08 187.158 171.18 186.478 171.38C186.398 172.1 186.358 172.66 186.358 173.06L186.298 173.96C186.298 174.24 186.118 175.72 185.758 178.4C185.518 178.76 185.318 180.62 185.158 183.98V188.36C185.158 189.08 185.218 189.76 185.338 190.4C185.378 191.28 185.478 191.9 185.638 192.26C185.638 192.62 185.738 193.38 185.938 194.54C185.458 195.7 184.658 196.28 183.538 196.28C182.458 196.28 181.498 195.88 180.658 195.08L179.998 194.12C179.878 193.8 179.778 193.58 179.698 193.46C179.658 193.34 179.618 193.2 179.578 193.04C179.298 192.24 179.078 191.74 178.918 191.54C178.678 191.22 178.558 190.98 178.558 190.82C178.558 190.66 178.558 190.46 178.558 190.22C178.478 189.54 178.378 188.96 178.258 188.48C178.058 188.28 177.958 187.6 177.958 186.44C178.038 184.32 178.038 183.1 177.958 182.78C178.078 182.66 178.098 181.9 178.018 180.5L178.198 179.18C178.198 179.02 178.278 178.42 178.438 177.38C178.358 177.22 178.338 176.8 178.378 176.12C178.418 175.4 178.478 174.9 178.558 174.62C178.638 174.14 178.678 173.54 178.678 172.82ZM198.816 155.18C198.856 155.14 199.236 155.08 199.956 155C201.116 154.8 201.916 154.88 202.356 155.24C202.836 155.56 203.176 155.92 203.376 156.32C203.456 157.6 203.276 159.26 202.836 161.3C202.396 162.62 202.016 163.6 201.696 164.24L201.096 165.14C200.976 165.46 200.716 165.8 200.316 166.16C199.916 166.52 199.616 166.7 199.416 166.7C199.256 166.66 198.956 166.52 198.516 166.28C198.116 166 197.876 165.8 197.796 165.68C197.756 165.56 197.716 165.42 197.676 165.26L197.376 164.06L196.176 162.56C195.936 162.08 195.816 161.6 195.816 161.12C195.696 160 195.836 159.14 196.236 158.54C196.236 158.46 196.296 158.26 196.416 157.94C196.616 157.06 197.416 156.14 198.816 155.18ZM197.016 182.12C197.016 181.76 197.076 181.28 197.196 180.68C197.356 180.04 197.396 179.6 197.316 179.36C197.276 179.12 197.276 178.44 197.316 177.32C197.436 176.84 197.456 176.3 197.376 175.7C197.096 174.82 197.016 174.18 197.136 173.78C197.256 173.38 197.516 172.94 197.916 172.46C198.316 171.94 198.756 171.58 199.236 171.38C199.716 171.18 200.436 171.2 201.396 171.44C201.636 171.56 202.036 171.96 202.596 172.64C202.716 172.76 202.856 173.22 203.016 174.02C203.216 174.82 203.336 175.7 203.376 176.66C203.456 177.58 203.516 178.94 203.556 180.74C203.596 182.5 203.676 184.88 203.796 187.88C203.916 190.84 203.936 192.68 203.856 193.4C203.816 194.12 203.556 194.66 203.076 195.02C202.636 195.42 202.236 195.5 201.876 195.26C201.556 195.06 201.216 194.92 200.856 194.84C200.216 194.84 199.656 194.58 199.176 194.06C199.016 194.02 198.636 193.84 198.036 193.52C197.436 193.16 197.056 192.52 196.896 191.6C196.696 191.2 196.636 189.9 196.716 187.7V185.54L197.016 183.5V182.12ZM214.39 183.56C214.19 184.96 214.09 186.26 214.09 187.46C214.09 188.66 214.17 189.5 214.33 189.98C214.37 190.34 214.45 190.58 214.57 190.7C214.77 190.78 215.05 190.78 215.41 190.7C215.97 190.46 216.25 190.2 216.25 189.92C217.41 188.8 218.07 188.06 218.23 187.7C218.39 187.34 218.51 187.12 218.59 187.04C218.75 186.84 218.85 186.58 218.89 186.26C219.09 186.06 219.21 185.92 219.25 185.84C219.21 185.72 219.29 185.38 219.49 184.82C219.33 184.54 219.33 184.34 219.49 184.22C219.69 184.06 219.79 183.64 219.79 182.96L220.03 181.04C220.03 180.8 220.05 180.62 220.09 180.5C220.05 180.34 220.05 180.1 220.09 179.78C220.17 179.42 220.19 178.86 220.15 178.1C220.11 177.34 219.97 176.84 219.73 176.6L219.61 176.24C219.53 175.96 219.21 175.76 218.65 175.64L218.17 175.4C218.29 175.64 218.17 175.96 217.81 176.36C216.25 178.48 215.11 180.88 214.39 183.56ZM210.25 177.14C210.29 176.82 210.41 176.52 210.61 176.24L210.55 175.88C210.71 175.32 210.81 175 210.85 174.92C210.89 174.84 210.95 174.84 211.03 174.92C210.99 174.76 211.01 174.64 211.09 174.56C211.21 174.2 211.39 173.78 211.63 173.3C211.91 172.82 212.07 172.52 212.11 172.4C212.35 171.72 212.73 171.28 213.25 171.08C213.25 170.76 213.81 170.54 214.93 170.42C216.21 169.98 217.25 169.9 218.05 170.18C218.45 169.94 219.05 170.04 219.85 170.48C220.45 170.72 221.09 171.08 221.77 171.56C222.37 171.96 222.87 172.4 223.27 172.88C223.83 173.12 224.19 173.52 224.35 174.08C225.47 176.76 226.03 179.12 226.03 181.16L225.91 181.82C225.91 182.38 225.85 182.74 225.73 182.9C225.65 183.02 225.61 183.22 225.61 183.5C225.69 183.54 225.69 183.72 225.61 184.04C225.61 184.24 225.29 185.54 224.65 187.94L223.69 189.92C223.69 190 223.59 190.14 223.39 190.34V190.7C223.39 190.78 223.29 190.94 223.09 191.18C222.69 191.98 222.29 192.58 221.89 192.98C221.25 194.02 220.71 194.78 220.27 195.26L219.79 195.92L219.07 195.86C218.95 196.06 218.83 196.16 218.71 196.16C218.63 196.16 218.35 196.08 217.87 195.92L218.35 195.86C218.03 195.9 217.77 195.88 217.57 195.8C217.41 195.72 217.25 195.68 217.09 195.68C216.33 195.28 215.79 195.14 215.47 195.26C215.31 195.26 214.71 195.1 213.67 194.78L211.99 194.48L210.67 194C210.31 193.8 209.97 193.56 209.65 193.28C209.53 193.04 209.47 192.84 209.47 192.68L209.11 191.48C209.11 191.4 209.07 191.2 208.99 190.88V189.32C209.07 188.92 209.11 188.54 209.11 188.18C209.03 187.98 209.03 187.56 209.11 186.92V186.26C209.11 186.14 209.13 185.92 209.17 185.6C209.13 185.4 209.15 184.96 209.23 184.28C209.31 183.6 209.35 182.98 209.35 182.42C209.35 181.9 209.43 181.18 209.59 180.26C209.71 179.98 209.79 179.48 209.83 178.76C209.87 178 210.01 177.46 210.25 177.14ZM231.682 188.06C231.682 187.9 231.722 187.3 231.802 186.26C231.482 185.78 231.322 184.7 231.322 183.02C231.282 178.74 231.262 176.56 231.262 176.48C231.302 176.4 231.262 176.26 231.142 176.06C231.022 175.82 230.962 175.58 230.962 175.34V174.68C230.802 173.36 230.882 172.36 231.202 171.68C231.282 171.28 231.502 170.98 231.862 170.78C232.142 170.38 232.542 170.18 233.062 170.18C233.582 170.18 234.022 170.24 234.382 170.36C234.662 170.24 234.922 170.4 235.162 170.84C235.642 171.04 235.902 171.14 235.942 171.14L236.242 171.38C236.562 171.38 236.762 171.44 236.842 171.56C236.962 171.64 237.042 171.88 237.082 172.28L237.622 177.5V178.52C237.702 179 237.742 179.38 237.742 179.66L237.802 182.48L238.042 182.54C238.282 181.58 238.542 180.78 238.822 180.14C239.142 179.46 239.342 178.96 239.422 178.64C239.462 178.32 239.602 178.02 239.842 177.74C240.082 177.26 240.202 176.92 240.202 176.72C240.202 176.52 240.362 176.26 240.682 175.94C241.042 175.06 241.382 174.42 241.702 174.02L241.882 173.54C242.042 173.3 242.162 173.1 242.242 172.94C242.682 172.58 243.002 172.26 243.202 171.98L243.682 171.62C243.762 171.62 243.842 171.52 243.922 171.32C244.002 171.08 244.522 170.94 245.482 170.9C246.242 170.78 246.882 170.78 247.402 170.9C247.762 170.9 247.982 170.92 248.062 170.96L248.422 171.32L248.902 171.44C249.582 171.8 250.022 172.66 250.222 174.02C250.222 176.74 250.322 178.54 250.522 179.42C250.802 181.7 251.262 183.74 251.902 185.54C252.582 187.34 253.242 188.54 253.882 189.14C254.722 190.22 254.882 191.36 254.362 192.56C254.002 193.16 253.542 193.48 252.982 193.52C252.422 193.56 252.022 193.54 251.782 193.46C251.462 193.46 251.202 193.4 251.002 193.28C250.562 193.4 250.182 193.3 249.862 192.98C249.502 192.98 249.222 192.8 249.022 192.44C247.622 190.6 246.802 189.46 246.562 189.02C246.362 188.58 246.202 188.28 246.082 188.12C246.002 187.96 245.942 187.82 245.902 187.7C245.862 187.58 245.802 187.4 245.722 187.16C245.642 186.8 245.482 186.48 245.242 186.2C245.042 185.88 244.942 185.64 244.942 185.48C244.822 185.28 244.742 184.96 244.702 184.52C244.462 184.36 244.342 184.16 244.342 183.92C244.142 183.8 244.002 183.44 243.922 182.84L243.682 181.28L243.562 181.22C241.562 183.74 240.422 186.6 240.142 189.8C240.062 190.6 239.982 191.12 239.902 191.36C239.702 191.68 239.782 192.18 240.142 192.86V193.22C240.142 193.38 239.922 193.68 239.482 194.12C239.002 194.16 238.722 194.18 238.642 194.18H237.982C237.902 194.18 237.742 194.24 237.502 194.36C237.262 194.36 237.062 194.4 236.902 194.48C236.742 194.56 236.522 194.54 236.242 194.42C235.522 194.38 235.102 194.32 234.982 194.24C234.862 194.2 234.682 194.14 234.442 194.06C234.202 194.02 234.002 193.9 233.842 193.7C233.642 193.7 233.502 193.58 233.422 193.34C232.382 192.3 231.862 191.42 231.862 190.7V190.28L231.802 189.8C231.882 189.16 231.842 188.58 231.682 188.06ZM262.361 189.2C262.401 188.64 262.501 188.32 262.661 188.24C262.821 188.16 262.961 188.16 263.081 188.24C263.241 188.28 263.981 188.36 265.301 188.48C265.661 188.92 265.961 189.18 266.201 189.26C267.161 190.22 267.801 190.7 268.121 190.7C268.441 190.74 268.581 191.04 268.541 191.6C268.541 192.12 268.361 192.6 268.001 193.04C267.441 194.28 266.701 195.24 265.781 195.92C265.341 196.08 265.001 196.16 264.761 196.16C264.521 196.16 263.861 196.08 262.781 195.92C261.741 195.76 261.141 195.44 260.981 194.96V193.58C260.981 192.82 261.061 192.38 261.221 192.26C261.421 192.14 261.521 191.82 261.521 191.3L261.701 190.04C261.981 189.84 262.201 189.56 262.361 189.2ZM271.601 161.06C271.801 160.38 271.901 160 271.901 159.92C271.941 159.8 272.001 159.66 272.081 159.5C272.401 158.86 272.561 158.42 272.561 158.18V157.34C272.561 157.06 272.541 156.9 272.501 156.86C272.461 156.82 272.281 156.8 271.961 156.8C271.361 156.92 270.541 157.22 269.501 157.7C268.501 158.14 267.781 158.56 267.341 158.96C266.941 159.32 266.401 160.06 265.721 161.18C265.041 162.26 264.661 162.98 264.581 163.34C264.541 163.7 264.441 163.98 264.281 164.18C264.161 164.38 264.021 164.86 263.861 165.62C263.741 166.34 263.681 166.82 263.681 167.06C263.681 167.26 263.781 167.36 263.981 167.36C264.421 167.44 264.281 167.6 263.561 167.84C263.441 167.92 263.221 167.96 262.901 167.96C262.581 167.96 262.381 167.92 262.301 167.84C261.541 167.84 261.101 167.74 260.981 167.54C260.541 167.54 260.061 167.38 259.541 167.06C259.021 166.7 258.681 166.3 258.521 165.86C257.961 164.22 258.141 162.68 259.061 161.24C259.581 159.72 260.141 158.74 260.741 158.3C261.421 156.86 261.821 156.08 261.941 155.96C262.101 155.8 262.241 155.7 262.361 155.66C262.521 155.26 262.601 155.02 262.601 154.94C262.601 154.82 262.781 154.66 263.141 154.46C263.501 154.22 263.781 154.02 263.981 153.86C264.381 153.54 264.581 153.3 264.581 153.14C264.861 153.14 265.121 153.08 265.361 152.96C265.921 152.84 266.281 152.64 266.441 152.36C266.681 152.36 267.181 152.24 267.941 152C268.701 151.76 269.721 151.7 271.001 151.82C271.201 151.9 271.581 152.1 272.141 152.42C272.701 152.7 273.021 152.88 273.101 152.96C273.181 153 273.281 153.04 273.401 153.08C273.721 153.2 274.001 153.42 274.241 153.74C274.601 153.82 274.941 153.96 275.261 154.16C275.661 154.52 276.161 154.8 276.761 155L277.781 155.6C278.261 155.68 278.661 155.74 278.981 155.78C279.141 155.78 279.341 156.06 279.581 156.62C279.661 158.7 278.741 161.5 276.821 165.02C276.701 165.3 276.481 165.74 276.161 166.34C275.881 166.9 275.721 167.3 275.681 167.54C275.281 168.42 274.201 170.7 272.441 174.38C270.681 178.06 269.661 180.16 269.381 180.68C269.341 180.68 269.241 180.8 269.081 181.04C268.921 181.24 268.801 181.36 268.721 181.4L268.421 182.06C268.421 182.26 268.201 182.42 267.761 182.54C267.361 182.62 267.041 182.64 266.801 182.6H264.881C263.921 182.4 263.361 182.22 263.201 182.06C263.041 181.9 262.961 181.4 262.961 180.56C262.961 177.92 263.501 175.74 264.581 174.02C264.981 173.02 265.341 172.24 265.661 171.68C266.021 171.08 266.241 170.62 266.321 170.3C266.401 169.98 266.721 169.54 267.281 168.98C267.521 168.34 267.761 167.86 268.001 167.54C268.201 167.46 268.481 167.08 268.841 166.4C269.241 165.72 269.441 165.28 269.441 165.08C269.441 164.84 269.621 164.6 269.981 164.36C269.981 164.2 270.101 163.94 270.341 163.58C270.341 163.02 270.461 162.62 270.701 162.38C270.941 162.1 271.061 161.78 271.061 161.42C271.061 161.18 271.241 161.06 271.601 161.06Z" fill="#EABC91"/>
</g>
<defs>
<filter id="filter0_i_14_27" x="0.988586" y="0.47998" width="303.79" height="211.38" filterUnits="userSpaceOnUse" color-interpolation-filters="sRGB">
<feFlood flood-opacity="0" result="BackgroundImageFix"/>
<feBlend mode="normal" in="SourceGraphic" in2="BackgroundImageFix" result="shape"/>
<feColorMatrix in="SourceAlpha" type="matrix" values="0 0 0 0 0 0 0 0 0 0 0 0 0 0 0 0 0 0 127 0" result="hardAlpha"/>
<feOffset dy="4"/>
<feGaussianBlur stdDeviation="2"/>
<feComposite in2="hardAlpha" operator="arithmetic" k2="-1" k3="1"/>
<feColorMatrix type="matrix" values="0 0 0 0 0 0 0 0 0 0 0 0 0 0 0 0 0 0 0.25 0"/>
<feBlend mode="normal" in2="shape" result="effect1_innerShadow_14_27"/>
</filter>
</defs>
</svg>
