<svg id="Capa_1" enable-background="new 0 0 511.99 511.99" height="512" viewBox="0 0 511.99 511.99" width="512" xmlns="http://www.w3.org/2000/svg"><g><path d="m342.687 114.689c-3.54-2.151-8.154-1.024-10.304 2.517s-1.023 8.154 2.517 10.304c40.969 24.882 65.428 68.317 65.428 116.188 0 4.142 3.357 7.5 7.5 7.5s7.5-3.358 7.5-7.5c-.001-54.139-28.67-102.303-72.641-129.009z"/><path d="m362.847 50.766c4.321 8.413 16.601 8.426 20.929-.002 2.564-4.998 6.732-9.156 11.737-11.708 8.43-4.3 8.486-16.521-.034-20.881-5.025-2.57-9.2-6.754-11.758-11.782-4.333-8.521-16.485-8.525-20.82 0-2.558 5.027-6.733 9.211-11.76 11.783-8.527 4.364-8.452 16.586-.032 20.88 5.004 2.552 9.173 6.711 11.738 11.71zm10.464-32.641c2.849 4.079 6.424 7.652 10.506 10.5-4.082 2.849-7.658 6.425-10.506 10.507-2.849-4.082-6.424-7.658-10.507-10.507 4.083-2.848 7.658-6.421 10.507-10.5z"/><path d="m59.307 364.36c-2.556 5.026-6.731 9.21-11.756 11.781-8.531 4.364-8.455 16.589-.034 20.881 5.004 2.552 9.173 6.71 11.738 11.71 4.321 8.415 16.606 8.428 20.928-.001 2.564-4.998 6.733-9.156 11.738-11.708 8.429-4.3 8.487-16.523-.035-20.881h.001c-5.026-2.571-9.201-6.755-11.758-11.782-4.333-8.522-16.485-8.526-20.822 0zm20.918 22.231c-4.082 2.849-7.657 6.424-10.506 10.507-2.849-4.082-6.424-7.658-10.506-10.507 4.082-2.848 7.657-6.421 10.506-10.5 2.849 4.08 6.423 7.653 10.506 10.5z"/><path d="m443.634 120.962c4.787 9.321 18.433 9.333 23.227-.002 3.558-6.933 9.34-12.701 16.281-16.242 9.337-4.761 9.402-18.328-.045-23.16-6.972-3.567-12.764-9.371-16.311-16.346-4.808-9.448-18.268-9.452-23.08.001-3.546 6.974-9.338 12.778-16.309 16.344-9.446 4.832-9.386 18.398-.046 23.161 6.942 3.54 12.724 9.308 16.283 16.244zm11.613-45.657c4.396 7.269 10.58 13.45 17.855 17.844-7.275 4.397-13.462 10.584-17.856 17.858-4.395-7.275-10.581-13.462-17.854-17.858 7.274-4.394 13.459-10.575 17.855-17.844z"/><path d="m40.942 291.323c-4.143 0-7.5 3.358-7.5 7.5v4.116h-4.115c-4.143 0-7.5 3.358-7.5 7.5s3.357 7.5 7.5 7.5h4.115v4.116c0 4.142 3.357 7.5 7.5 7.5s7.5-3.358 7.5-7.5v-4.116h4.116c4.143 0 7.5-3.358 7.5-7.5s-3.357-7.5-7.5-7.5h-4.116v-4.116c0-4.142-3.358-7.5-7.5-7.5z"/><path d="m78.268 244.342c0 54.937 24.347 106.874 65.88 142.097-4.596 3.142-7.621 8.422-7.621 14.398v11.694c-8.496 1.579-14.953 9.034-14.953 17.981v37.748c-8.921.754-15.954 8.244-15.954 17.358v8.939c0 9.613 7.82 17.433 17.433 17.433h123.939c4.143 0 7.5-3.358 7.5-7.5s-3.357-7.5-7.5-7.5h-123.94c-1.342 0-2.433-1.091-2.433-2.433v-8.939c0-1.341 1.091-2.433 2.433-2.433h282.88c1.342 0 2.433 1.091 2.433 2.433v8.939c0 1.342-1.091 2.433-2.433 2.433h-123.94c-4.143 0-7.5 3.358-7.5 7.5s3.357 7.5 7.5 7.5h123.94c9.612 0 17.433-7.82 17.433-17.433v-8.939c0-9.113-7.033-16.603-15.954-17.358v-37.748c0-8.947-6.457-16.401-14.953-17.981v-11.694c0-5.977-3.026-11.258-7.624-14.4 37.063-31.375 60.513-75.888 65.065-124.541.386-4.124-2.645-7.78-6.77-8.166-4.101-.384-7.779 2.645-8.166 6.769-4.608 49.261-30.286 93.922-70.571 122.905h-199.801c-44.703-32.176-71.323-83.983-71.323-139.063 0-94.413 76.811-171.224 171.224-171.224 88.273 0 161.508 66.133 170.352 153.832.415 4.121 4.076 7.121 8.215 6.71 4.121-.416 7.125-4.094 6.709-8.215-9.512-94.335-89.165-167.327-185.275-167.327-102.685.001-186.225 83.541-186.225 186.225zm58.305 223.843v-37.673c0-1.79 1.512-3.302 3.302-3.302h249.233c1.79 0 3.302 1.512 3.302 3.302v37.673zm238.452-69.781c1.342 0 2.433 1.091 2.433 2.433v11.373h-225.932v-11.373c0-1.341 1.091-2.433 2.433-2.433z"/></g></svg>