<svg id="svg1059" height="512" viewBox="0 0 12.7 12.7" width="512" xmlns="http://www.w3.org/2000/svg" xmlns:svg="http://www.w3.org/2000/svg"><g id="layer1" transform="translate(169.333 -118.746)"><path id="path1031" d="m-166.15833 119.27564v.001 1.05678h-1.05833v1.05833c.35333-.00004.70501.00053 1.05833.00053v1.05834h1.05834v1.05833h.00053 1.0578v1.05833h.00053v.00053h1.0578v1.05777h-1.05834v1.05833h-1.05832v1.0573h-1.05834v1.05885h-1.05833v1.05834c.35329-.00004.70503.00053 1.05833.00053v1.05833h2.11667.00053v-1.05833c.35351.00003.70534-.00053 1.05885-.00053v-1.05782h1.05729v-1.05833h1.05834v-1.0573h1.05833v-1.05885h1.05833v-1.05834c-.35323.00053-.70564-.00053-1.05833-.00053v-1.05833h-1.05833v-1.05833h-.00053-1.0578v-1.05834h-.00053v-.00053h-1.05679v.00055h-.001v-.00053h.001v-1.05834h-1.05885v.00053h-.00054v-.00053h.00053v-1.05678h-.00053v-.001z" font-variant-ligatures="normal" font-variant-position="normal" font-variant-caps="normal" font-variant-numeric="normal" font-variant-alternates="normal" font-feature-settings="normal" text-indent="0" text-align="start" text-decoration-line="none" text-decoration-style="solid" text-decoration-color="rgb(0,0,0)" text-transform="none" text-orientation="mixed" white-space="normal" shape-padding="0" isolation="auto" mix-blend-mode="normal" solid-color="rgb(0,0,0)" solid-opacity="1" vector-effect="none" paint-order="normal"/></g></svg>