<?xml version="1.0" encoding="utf-8"?>
<!-- Generator: Adobe Illustrator 26.0.1, SVG Export Plug-In . SVG Version: 6.00 Build 0)  -->
<svg version="1.1" id="Lager_1" xmlns="http://www.w3.org/2000/svg" xmlns:xlink="http://www.w3.org/1999/xlink" x="0px" y="0px"
	 viewBox="0 0 116.5 93.9" style="enable-background:new 0 0 116.5 93.9;" xml:space="preserve">
<style type="text/css">
	.st0{fill:#423C3C;}
</style>
<g>
	<g>
		<path class="st0" d="M24.3,2C30.9,2.9,35.5,4.8,38,7.9s3.2,6.8,2.2,11.2c-0.8,3.5-2.4,6.4-4.9,8.5c-2.5,2.1-5.9,3-10.1,2.7
			c-0.9,3.4-2,7.8-3.2,13.3l-7.1-1.3L24.3,2z M33,13.8c-0.5-1.3-1.6-2.1-3.2-2.5l-3,11.7c1.5,0.2,2.8-0.2,4-1
			c1.1-0.8,1.9-2.1,2.3-3.7C33.6,16.6,33.5,15.1,33,13.8z"/>
		<path class="st0" d="M52.8,26.3c1.7,2.3,2.7,5.4,3,9.5c0.3,2.9,0.2,5.6-0.2,7.8c-0.4,2.3-1.3,4.2-2.6,5.8
			c-1.4,1.6-3.2,2.5-5.4,2.7c-3,0.3-5.4-0.7-7.1-2.9c-1.7-2.2-2.7-5.2-3.1-9.1c-0.4-4.7,0.1-8.6,1.4-11.7c1.4-3.1,3.6-4.9,6.8-5.1
			C48.7,23,51.1,24,52.8,26.3z M46.2,30.5c-0.9,0.1-1.6,1-2,2.7c-0.4,1.7-0.5,3.8-0.2,6.3c0.4,4.2,1.3,6.2,2.9,6.1
			c1-0.1,1.7-0.9,2-2.3c0.4-1.5,0.5-3.4,0.2-5.7C48.8,32.7,47.8,30.3,46.2,30.5z"/>
		<path class="st0" d="M70.9,32.1c2,3.9,4.5,8.2,7.7,13.1l-6.9,1.4l-6.5-10.7l-0.6,10.8C62.2,46.6,60,46.4,58,46
			c0.2-5.4,0.5-11.5,0.9-18.2c0.4-6.7,0.7-12,1-16l0.4-6l7.3,0.8c-0.6,5.8-1.2,13.1-1.9,22c1.1-1.7,2.1-3.4,3.1-5.1
			c1-1.7,1.7-3,2.2-3.8l0.7-1.2l6.4,1.5C75.2,24.9,72.9,28.9,70.9,32.1z"/>
		<path class="st0" d="M90.6,38.8l6.2-0.5c0.3,2.6-0.1,4.9-1.3,7c-1.1,2.1-3,3.4-5.7,3.8c-6.1,1-9.7-3.3-10.9-13
			c-1.1-9.3,1.3-14.4,7.2-15.5c2.9-0.5,5.2,0.5,7,3S95.8,30,96,35.3c-3.9,0.8-7.2,1.6-10,2.3c0.6,3.9,1.7,5.7,3.3,5.4
			C90.3,42.9,90.8,41.4,90.6,38.8z M85,9.8l4,0.9c-0.9,2.4-2,4.8-3.3,7.2c-1.5,0-2.8-0.1-3.7-0.2C82.8,15.1,83.8,12.4,85,9.8z
			 M85.4,32.5c1.2-0.2,2.6-0.5,4.2-0.9c-0.7-3.5-1.6-5.1-2.7-5C85.6,26.8,85.1,28.8,85.4,32.5z"/>
		<path class="st0" d="M12.3,52.6c-0.3-1-0.6-1.5-0.9-1.7c-0.3-0.2-0.7-0.2-1.1-0.3c-1.5,0-2.3,1.1-2.3,3.3c0,1.2,0.4,2.3,1.2,3.5
			c0.8,1.2,1.8,2.3,3,3.4c1.2,1.1,2.3,2.2,3.5,3.5c1.2,1.2,2.2,2.8,3,4.6c0.8,1.8,1.2,3.8,1.2,6c0,3.5-1,6.2-2.8,8
			c-1.8,1.8-4.2,2.7-7.1,2.6c-1.5,0-2.9-0.2-4-0.6c-1.2-0.4-2.2-1-3.3-2c-1-1-1.8-2.4-2.2-4.3c-0.5-1.9-0.6-4.3-0.4-7.2l7.4,0.1
			c-0.2,2.6,0,4.4,0.4,5.4c0.4,1.1,1.1,1.6,2.1,1.6c1.6,0,2.3-1.1,2.4-3.2c0-1.4-0.4-2.8-1.2-4.1c-0.8-1.3-1.8-2.6-3-3.7
			c-1.2-1.1-2.4-2.3-3.6-3.5c-1.2-1.2-2.2-2.7-3-4.3c-0.8-1.7-1.2-3.5-1.2-5.4c0-3.5,0.9-6.3,2.7-8.3c1.7-2,4.1-3,7.2-3
			c6.8,0.1,10,4.6,9.4,13.6l-7.1,0.2C12.7,54.9,12.6,53.6,12.3,52.6z"/>
		<path class="st0" d="M40.8,55.7c0.7,1.5,0.8,3.9,0.5,7.2L39,82.2l-6.6-0.3c0.8-6.7,1.3-11.8,1.7-15.2c0.2-2.5,0.2-4.1,0-4.8
			c-0.2-0.7-0.6-1.1-1.3-1.2c-1.4-0.1-2.2,1.3-2.5,4.2l-1.6,14.8c-2.1,0.1-4.4,0-6.7-0.1l4.8-43.1l7,1.1c-0.7,4.8-1.5,10.7-2.4,17.8
			c1.6-1.8,3.6-2.6,5.8-2.2C38.9,53.4,40.1,54.3,40.8,55.7z"/>
		<path class="st0" d="M55.1,88.8l-0.3-2.7c-1.1,1.2-2.7,1.9-4.7,2.1c-2.4,0.2-4.3-0.3-5.7-1.6c-1.4-1.3-2.2-2.9-2.3-4.9
			c-0.2-2.3,0.4-4.2,1.6-5.8c1.3-1.6,3.1-2.5,5.6-2.7c1.9-0.2,3.5,0,4.7,0.6c-0.1-1.4-0.1-2.3-0.2-2.8c-0.1-1.7-0.4-2.8-0.7-3.5
			c-0.4-0.7-0.9-1-1.5-0.9c-1.4,0.1-2.1,1.6-2,4.5l-5.8,0.2c-0.3-3.3,0.3-5.9,1.6-7.9c1.3-2,3.3-3.1,5.8-3.3c5.5-0.4,8.5,2.6,9,9.1
			c0.2,2.6,0.4,5.4,0.5,8.6c0.1,3.1,0.2,5.6,0.3,7.5c0.1,1.8,0.1,2.8,0.1,2.8L55.1,88.8z M54.2,79.9c-0.1-0.6-0.4-1.2-0.9-1.6
			c-0.6-0.4-1.2-0.6-2.1-0.5c-1,0.1-1.7,0.4-2.1,0.9c-0.4,0.6-0.6,1.2-0.5,2c0.1,0.6,0.3,1.2,0.8,1.6c0.5,0.4,1.2,0.6,2.2,0.5
			C53.5,82.8,54.4,81.8,54.2,79.9z"/>
		<path class="st0" d="M75.9,74.5c2.6,3.5,5.8,7.4,9.8,11.7l-6.6,2.5l-8.2-9.5L72.1,90c-2.3,0.3-4.5,0.5-6.6,0.4
			C64.8,85,64.1,79,63.3,72.3c-0.8-6.7-1.3-12-1.7-16l-0.6-6l7.3-0.5c0.3,5.8,0.9,13.1,1.8,22c0.8-1.8,1.5-3.7,2.2-5.5
			s1.2-3.2,1.5-4.1l0.5-1.3l6.6,0.4C79,66.7,77.3,71.1,75.9,74.5z"/>
		<path class="st0" d="M93.6,71.8l6.1,1.2c-0.4,2.6-1.5,4.7-3.2,6.4s-3.9,2.4-6.5,2.1c-6.1-0.7-8.4-5.9-6.9-15.5
			c1.5-9.2,5.2-13.5,11.2-12.9c2.9,0.3,4.9,1.9,5.9,4.7c1,2.9,0.8,6.9-0.5,12c-3.9-0.3-7.4-0.5-10.2-0.5c-0.4,3.9,0.1,5.9,1.6,6.1
			C92.2,75.7,93,74.4,93.6,71.8z M90.3,64.3c1.2,0.1,2.6,0.2,4.2,0.3c0.3-3.5-0.1-5.4-1.2-5.5C92.1,59,91.1,60.7,90.3,64.3z"/>
		<path class="st0" d="M113,80c-1,0.8-2.1,1.2-3.4,1.3c-1.2,0-2.3-0.4-3.1-1.3c-0.9-0.9-1.2-2-1.2-3.2c0.1-1.3,0.5-2.3,1.4-3.1
			c0.9-0.8,1.9-1.3,3.2-1.3c1.3,0,2.4,0.4,3.3,1.2c0.9,0.9,1.3,1.9,1.3,3.2C114.4,78.1,113.9,79.2,113,80z M114.2,49.2
			c-0.2,6-0.4,10.6-0.6,13.8l-0.2,4.7l-7.1,0.6c-0.3-7.4-0.6-13.9-0.7-19.4c-0.1-5.5-0.1-18-0.1-21.1l0-4.7l9.1,0.4
			C114.5,29.1,114.4,43.2,114.2,49.2z"/>
	</g>
</g>
</svg>
