<?xml version="1.0" encoding="UTF-8" standalone="no"?>
<svg
   xmlns:dc="http://purl.org/dc/elements/1.1/"
   xmlns:cc="http://creativecommons.org/ns#"
   xmlns:rdf="http://www.w3.org/1999/02/22-rdf-syntax-ns#"
   xmlns:svg="http://www.w3.org/2000/svg"
   xmlns="http://www.w3.org/2000/svg"
   version="1.1"
   id="svg2"
   viewBox="0 0 106.29875 59.624998"
   height="16.827499mm"
   width="29.99987mm">
  <defs
     id="defs4">
    <clipPath
       clipPathUnits="userSpaceOnUse"
       id="clipPath3371">
      <path
         d="m 0,0 595.276,0 0,841.89 L 0,841.89 0,0 Z"
         id="path3373" />
    </clipPath>
    <clipPath
       clipPathUnits="userSpaceOnUse"
       id="clipPath3469">
      <path
         d="m 0,0 595.275,0 0,102.849 L 0,102.849 0,0 Z"
         id="path3471" />
    </clipPath>
    <clipPath
       clipPathUnits="userSpaceOnUse"
       id="clipPath3547">
      <path
         d="m 0,0 595.276,0 0,841.89 L 0,841.89 0,0 Z"
         id="path3549" />
    </clipPath>
  </defs>
  <metadata
     id="metadata7">
    <rdf:RDF>
      <cc:Work
         rdf:about="">
        <dc:format>image/svg+xml</dc:format>
        <dc:type
           rdf:resource="http://purl.org/dc/dcmitype/StillImage" />
        <dc:title></dc:title>
      </cc:Work>
    </rdf:RDF>
  </metadata>
  <g
     transform="translate(-601.74407,-962.1661)"
     id="layer1">
    <g
       transform="matrix(1.25,0,0,-1.25,-0.61830571,1055.2945)"
       id="g3367">
      <g
         clip-path="url(#clipPath3371)"
         id="g3369">
        <g
           transform="translate(552.0472,98.504)"
           id="g3375" />
      </g>
    </g>
    <g
       transform="matrix(1.25,0,0,-1.25,614.59157,1021.7911)"
       id="g3457">
      <path
         id="path3459"
         style="fill:#00813c;fill-opacity:1;fill-rule:nonzero;stroke:none"
         d="m 0,0 -10.278,11.415 0,24.87 L 0,47.7 l 64.483,0 10.278,-11.415 0,-24.87 L 64.483,0 0,0 Z" />
    </g>
    <g
       transform="matrix(1.25,0,0,-1.25,702.40332,1005.3574)"
       id="g3461">
      <path
         id="path3463"
         style="fill:#fcd205;fill-opacity:1;fill-rule:nonzero;stroke:none"
         d="m 0,0 -7.775,-8.635 -60.465,0 -7.775,8.635 0,21.406 7.774,8.635 60.466,0 L 0,21.406 0,0 Z m -6.755,32.333 -62.506,0 -9.046,-10.047 0,-23.166 9.046,-10.047 62.506,0 9.046,10.047 0,23.166 -9.046,10.047 z" />
    </g>
    <g
       transform="matrix(1.25,0,0,-1.25,-0.61830571,1055.2945)"
       id="g3465">
      <g
         clip-path="url(#clipPath3469)"
         id="g3467">
        <g
           transform="translate(517.9635,53.9062)"
           id="g3473">
          <path
             id="path3475"
             style="fill:#fcd205;fill-opacity:1;fill-rule:nonzero;stroke:none"
             d="m 0,0 c -1.592,0 -2.668,0.814 -2.825,1.954 l -0.875,0 0.13,-2.626 0.677,0 c 0.038,0.289 0.134,0.47 0.336,0.47 0.203,0 0.942,-0.672 2.692,-0.672 1.547,0 3.296,0.672 3.296,2.489 0,2.086 -1.883,2.422 -3.431,2.489 -0.673,0.067 -2.153,0.067 -2.153,1.009 0,0.606 0.673,1.009 1.817,1.009 1.413,0 2.556,-0.739 2.758,-1.816 l 0.807,0 -0.13,2.481 -0.744,0 C 2.355,6.584 2.306,6.392 2.153,6.392 1.749,6.392 1.144,6.997 -0.538,6.997 -1.951,6.997 -3.7,6.257 -3.7,4.575 -3.7,2.624 -1.884,2.422 -0.471,2.287 0.27,2.22 1.951,2.355 1.951,1.278 1.951,0.673 1.346,0 0,0" />
        </g>
        <g
           transform="translate(544.2568,54.1083)"
           id="g3477">
          <path
             id="path3479"
             style="fill:#fcd205;fill-opacity:1;fill-rule:nonzero;stroke:none"
             d="m 0,0 -0.539,0 c -0.404,0 -0.605,0.067 -0.605,0.538 l 0,4.777 c 0,0.135 0.083,0.132 0.134,0 l 2.22,-6.189 1.279,0 2.288,6.189 c 0.046,0.138 0.134,0.133 0.134,0 l 0,-4.777 C 4.911,0.067 4.708,0 4.372,0 l -0.606,0 0,-0.874 4.584,0 0,0.874 C 7.712,0.073 6.862,0.134 6.862,0.942 l 0,3.835 c 0,0.807 0.643,0.791 1.484,0.94 l 0,0.876 -4.175,0 -1.884,-5.18 -1.749,5.18 -4.171,0 0,-0.875 c 0.604,-0.134 1.48,-0.067 1.48,-0.874 l 0,-3.902 C -2.153,0.134 -2.96,0.067 -3.633,0 l 0,-0.874 3.633,0 L 0,0 Z" />
        </g>
        <g
           transform="translate(497.2331,42.1206)"
           id="g3481">
          <path
             id="path3483"
             style="fill:#fcd205;fill-opacity:1;fill-rule:nonzero;stroke:none"
             d="m 0,0 -1.3,0 c -0.215,0 -0.314,0.062 -0.314,0.233 l 0,2.204 1.682,0 C 0.74,2.437 1.615,2.303 1.615,1.294 1.615,0.27 0.862,0 0,0 m -1.614,5.311 c 0,0.202 0,0.337 0.269,0.337 l 1.413,0 c 0.74,0 1.211,-0.393 1.211,-1.066 0,-0.874 -0.673,-1.211 -1.346,-1.211 l -1.547,0 0,1.94 z M 1.548,2.972 C 2.355,3.107 3.23,3.645 3.23,4.587 3.23,5.932 2.154,6.532 0.875,6.532 l -5.919,0 0,-0.869 c 0.847,-0.138 1.479,-0.189 1.479,-0.877 l 0,-3.943 c 0,-0.263 0.011,-0.792 -1.475,-0.898 l 0,-0.875 5.377,0 c 1.48,0 3.297,0.202 3.297,2.086 0,1.211 -0.942,1.749 -2.086,1.816" />
        </g>
        <g
           transform="translate(539.2143,55.8576)"
           id="g3485">
          <path
             id="path3487"
             style="fill:#fcd205;fill-opacity:1;fill-rule:nonzero;stroke:none"
             d="m 0,0 -0.875,0 c -0.201,-0.875 -0.403,-1.682 -1.681,-1.682 l -1.413,0 c -0.337,0 -0.337,0.067 -0.337,0.202 l 0,2.153 0.942,0 c 0.808,0 0.808,-0.808 0.808,-1.211 l 0.874,0 0,3.363 -0.874,0 c 0,-0.269 0,-1.21 -0.741,-1.21 l -1.009,0 0,2.085 c 0,0.202 0.068,0.269 0.337,0.269 l 1.413,0 c 1.278,0 1.48,-0.672 1.615,-1.614 l 0.874,0 -0.134,2.489 -7.536,0 0,-0.875 C -7.121,3.888 -6.259,3.82 -6.256,3.094 l 0,-3.901 c 0,-0.741 -0.539,-0.808 -1.481,-0.942 l 0,-0.875 7.602,0 L 0,0 Z" />
        </g>
        <g
           transform="translate(500.0819,53.9062)"
           id="g3489">
          <path
             id="path3491"
             style="fill:#fcd205;fill-opacity:1;fill-rule:nonzero;stroke:none"
             d="m 0,0 c -1.593,0 -2.668,0.814 -2.825,1.954 l -0.875,0 0.13,-2.626 0.677,0 c 0.039,0.289 0.135,0.47 0.337,0.47 0.201,0 0.941,-0.672 2.69,-0.672 1.548,0 3.297,0.672 3.297,2.489 0,2.086 -1.883,2.422 -3.431,2.489 -0.672,0.067 -2.153,0.067 -2.153,1.009 0,0.606 0.673,1.009 1.816,1.009 1.413,0 2.557,-0.739 2.759,-1.816 l 0.808,0 -0.132,2.481 -0.744,0 C 2.354,6.584 2.307,6.392 2.153,6.392 1.749,6.392 1.144,6.997 -0.538,6.997 -1.951,6.997 -3.7,6.257 -3.7,4.575 -3.7,2.624 -1.884,2.422 -0.471,2.287 0.269,2.22 1.951,2.355 1.951,1.278 1.951,0.673 1.345,0 0,0" />
        </g>
        <g
           transform="translate(556.9766,48.653)"
           id="g3493">
          <path
             id="path3495"
             style="fill:#fcd205;fill-opacity:1;fill-rule:nonzero;stroke:none"
             d="m 0,0 -7.803,0 -0.136,-2.484 0.801,0 c 0.17,0.875 0.395,1.615 1.688,1.615 l 0.57,0 0,-4.777 c 0,-0.74 -0.434,-0.807 -1.445,-0.941 l 0,-0.882 4.845,0 0,0.882 c -0.942,0.134 -1.448,0.201 -1.448,0.941 l 0,4.777 0.558,0 c 0.852,0 1.48,-0.219 1.705,-1.615 l 0.799,0 L 0,0 Z" />
        </g>
        <g
           transform="translate(506.495,41.9304)"
           id="g3497">
          <path
             id="path3499"
             style="fill:#fcd205;fill-opacity:1;fill-rule:nonzero;stroke:none"
             d="m 0,0 c -1.345,0 -2.422,0.942 -2.422,2.96 0,2.019 1.077,3.096 2.422,3.096 1.414,0 2.49,-1.144 2.49,-3.096 C 2.49,0.859 1.414,0 0,0 m 0,6.931 c -2.556,0 -4.508,-1.413 -4.508,-3.971 0,-2.69 2.019,-3.917 4.508,-3.917 2.557,0 4.575,1.227 4.575,3.917 0,2.558 -2.018,3.971 -4.575,3.971" />
        </g>
        <g
           transform="translate(535.0988,43.9495)"
           id="g3501">
          <path
             id="path3503"
             style="fill:#fcd205;fill-opacity:1;fill-rule:nonzero;stroke:none"
             d="m 0,0 0.47,0 c 0.471,0 0.875,-0.135 0.875,-0.74 0,-0.606 -0.703,-1.279 -1.748,-1.279 -1.414,0 -2.692,0.942 -2.692,2.96 0,1.951 1.211,3.096 2.623,3.096 1.279,0 2.288,-0.538 2.49,-1.817 l 0.874,0 0,2.489 -0.874,0 c 0,-0.29 -0.096,-0.404 -0.202,-0.404 -0.337,0 -1.143,0.607 -2.691,0.607 -2.152,0 -4.305,-1.481 -4.305,-3.971 0,-2.623 2.286,-3.917 4.305,-3.917 1.884,0 2.473,0.722 2.794,0.722 0.219,0 0.301,-0.257 0.301,-0.505 l 0.806,0 0,1.884 C 3.026,-0.135 3.565,0 4.239,0 l 0,0.941 L 0,0.941 0,0 Z" />
        </g>
        <g
           transform="translate(545.1945,42.1259)"
           id="g3505">
          <path
             id="path3507"
             style="fill:#fcd205;fill-opacity:1;fill-rule:nonzero;stroke:none"
             d="M 0,0 -1.414,0 C -1.692,0 -1.75,0.078 -1.75,0.249 l 0,2.105 0.942,0 C 0,2.354 0,1.547 0,1.143 l 0.875,0 0,3.364 -0.875,0 C 0,4.238 0,3.296 -0.74,3.296 l -1.01,0 0,2.086 c 0,0.202 0.068,0.269 0.336,0.269 l 1.414,0 c 1.278,0 1.48,-0.672 1.614,-1.615 l 0.875,0 -0.135,2.49 -7.535,0 0,-0.875 c 0.616,-0.081 1.478,-0.149 1.48,-0.875 l 0,-3.902 c 0,-0.74 -0.538,-0.807 -1.48,-0.942 l 0,-0.875 7.603,0 0.134,2.625 -0.874,0 C 1.48,0.807 1.278,0 0,0" />
        </g>
        <g
           transform="translate(530.4437,60.7012)"
           id="g3509">
          <path
             id="path3511"
             style="fill:#fcd205;fill-opacity:1;fill-rule:nonzero;stroke:none"
             d="m 0,0 -7.804,0 -0.135,-2.489 0.8,0 c 0.17,0.874 0.396,1.614 1.69,1.614 l 0.569,0 0,-4.776 c 0,-0.74 -0.435,-0.807 -1.444,-0.942 l 0,-0.874 4.844,0 0,0.874 c -0.942,0.135 -1.449,0.202 -1.449,0.942 l 0,4.776 0.558,0 c 0.853,0 1.48,-0.219 1.705,-1.614 l 0.8,0 L 0,0 Z" />
        </g>
        <g
           transform="translate(509.857,55.0502)"
           id="g3513">
          <path
             id="path3515"
             style="fill:#fcd205;fill-opacity:1;fill-rule:nonzero;stroke:none"
             d="M 0,0 0,1.345 2.153,4.171 C 2.49,4.575 2.767,4.709 3.499,4.709 l 0,0.942 -3.431,0 0,-0.942 c 0.92,0.003 1.088,-0.151 0.675,-0.725 0,0 -0.953,-1.212 -1.079,-1.36 -0.058,-0.088 -0.123,-0.106 -0.202,0 -0.464,0.621 -1.077,1.412 -1.077,1.412 -0.525,0.62 0.066,0.673 0.673,0.673 l 0,0.942 -4.574,0 0,-0.942 C -4.7,4.71 -4.417,4.572 -4.171,4.239 L -1.95,1.345 -1.95,0 c 0,-0.781 -0.556,-0.807 -1.431,-0.942 l 0,-0.874 4.828,0 0,0.874 C 0.637,-0.788 0,-0.79 0,0" />
        </g>
        <g
           transform="translate(516.6855,42.1328)"
           id="g3517">
          <path
             id="path3519"
             style="fill:#fcd205;fill-opacity:1;fill-rule:nonzero;stroke:none"
             d="M 0,0 -1.091,0 C -1.36,0 -1.428,0.067 -1.428,0.202 l 0,4.507 c 0,0.538 0.337,0.808 1.481,0.942 l 0,0.875 -4.93,0 0,-0.888 c 0.822,-0.076 1.48,-0.234 1.48,-0.862 l 0,-3.902 c 0,-0.74 -0.538,-0.807 -1.48,-0.941 l 0,-0.875 7.232,0 0.134,2.624 -0.807,0 C 1.412,0.673 1.278,0 0,0" />
        </g>
        <g
           transform="translate(523.2692,44.0837)"
           id="g3521">
          <path
             id="path3523"
             style="fill:#fcd205;fill-opacity:1;fill-rule:nonzero;stroke:none"
             d="m 0,0 1.185,3.008 c 0.067,0.201 0.202,0.201 0.269,0 L 2.628,0 0,0 Z m 5.091,-1.278 -2.522,5.847 -1.784,0 -2.556,-5.847 c -0.202,-0.426 -0.326,-0.63 -1.48,-0.74 l 0,-0.875 3.498,0 0,0.875 -0.606,0 c -0.336,0 -0.403,0.135 -0.336,0.336 l 0.317,0.808 3.396,0 0.31,-0.808 C 3.367,-1.799 3.401,-2.031 3.03,-2.031 l -0.644,0 10e-4,-0.862 4.116,0 0,0.942 c -1.008,0 -1.277,0.404 -1.412,0.673" />
        </g>
      </g>
    </g>
  </g>
</svg>
