<?xml version="1.0" encoding="utf-8"?>
<!-- Generator: Adobe Illustrator 24.2.1, SVG Export Plug-In . SVG Version: 6.00 Build 0)  -->
<svg version="1.1" xmlns="http://www.w3.org/2000/svg" xmlns:xlink="http://www.w3.org/1999/xlink" x="0px" y="0px"
	 viewBox="0 0 1080 1080" style="enable-background:new 0 0 1080 1080;" xml:space="preserve">
<style type="text/css">
	.st0{fill:#EBC4DA;}
	.st1{fill:#AB9A9E;}
	.st2{fill:#3A0F4C;}
	.st3{fill:none;stroke:#3A0F4C;stroke-width:2;stroke-miterlimit:10;}
	.st4{display:none;fill:#FFFFFF;stroke:#000000;stroke-miterlimit:10;}
	.st5{display:none;}
	.st6{display:inline;fill:#FFFFFF;stroke:#000000;stroke-miterlimit:10;}
</style>
<g id="Lager_1">
	<path class="st0" d="M468.22,197.45c5.72-20.97-36.22-55.28-102.93-48.6S228.05,208.89,221.38,291.8
		c-4.93,61.25-87.46,90.74-58.14,165.83c23.83,60.99,183.94,108.65,252.45,62.79C481.38,476.47,462.5,218.42,468.22,197.45z"/>
	<g>
		<path class="st1" d="M452,202c0,0-14.14-27.13-80.04-29.33C292,170,243.5,232.5,216.37,314.39c1.13-2.89,4.31-8.96,5.13-21.89
			c5-79,75-136,139-144C429.83,139.83,471,176,470,195C469.67,201.2,452,202,452,202z"/>
	</g>
	<path class="st0" d="M619.06,198.93c-5.72-20.97,36.22-55.28,102.93-48.6C788.7,157,859.23,210.37,865.9,293.28
		c4.93,61.25,87.46,90.74,58.14,165.83C900.21,520.1,740.1,567.76,671.59,521.9C605.91,477.95,624.78,219.9,619.06,198.93z"/>
	<g>
		<path class="st1" d="M635.28,203.48c0,0,14.14-27.13,80.04-29.33c79.96-2.67,128.46,59.83,155.59,141.72
			c-1.13-2.89-4.31-8.96-5.13-21.89c-5-79-75-136-139-144c-69.33-8.67-110.5,27.5-109.5,46.5
			C617.61,202.68,635.28,203.48,635.28,203.48z"/>
	</g>
	<g>
		<path class="st1" d="M748.99,368.52c28.1,107.74-64.62,201.09-209.76,201.09c-143.15,0-238.9-93.6-209.76-201.09
			c32.81-121.04,103.39-186.8,214.73-186.8C650.57,181.73,719.16,254.16,748.99,368.52z"/>
	</g>
	<path class="st2" d="M612.13,377.93c15.72,13.87,18.97,26.1,16.86,43.45c-4.56,37.65,6.85,86.06,27.39,100.86
		c22.2,15.99,72.63,13.93,112.97-33.62c39.94-47.07,51.35-76.65,71.89-73.96c9.13,18.83,18.26,53.79,12.55,55.14
		c-32.06,7.56-71.89,100.86-157.48,143.89c-47.91,24.09-158.62,30.93-208.83-56.48c-28.96-50.42-14.72-61.02-33.09-122.37
		c-6.85-22.86,2.28-49.76,18.26-52.45"/>
	<path class="st2" d="M604.13,380.93c15.72,13.87,18.97,26.1,16.86,43.45c-4.56,37.65,6.85,86.06,27.39,100.86
		c22.2,15.99,72.63,13.93,112.97-33.62c39.94-47.07,51.35-76.65,71.89-73.96c9.13,18.83,18.26,53.79,12.55,55.14
		c-32.06,7.56-71.89,100.86-157.48,143.89c-47.91,24.09-158.62,30.93-208.83-56.48c-28.96-50.42-14.72-61.02-33.09-122.37
		c-6.85-22.86,2.28-49.76,18.26-52.45"/>
	<path class="st3" d="M415,355.86c22.59,14.27,54.69,8.32,68.96,0"/>
	<path class="st3" d="M601.67,355.86c22.59,14.27,54.69,8.32,68.96,0"/>
	<path class="st4" d="M615.72,414.19c0,0,16.35,8.89,21.78,33.31c4,18-1,63,17,74c19.46,11.89,63.64,10.36,99-25c35-35,45-57,63-55
		c8,14,16,40,11,41c-28.1,5.62-63,75-138,107c-41.99,17.92-139,23-183-42c-25.38-37.49-35.44-79.4-29.89-98.83
		c7.13-24.97,29.89-31.17,29.89-31.17"/>
	<path class="st1" d="M607.56,375.95c15.72,13.87,18.97,26.1,16.86,43.45c-4.56,37.65,6.85,86.06,27.39,100.86
		c22.2,15.99,72.63,13.93,112.97-33.62c39.94-47.07,51.35-76.65,71.89-73.96c9.13,18.83,18.26,53.79,12.55,55.14
		c-32.06,7.56-71.89,100.86-157.48,143.89c-47.91,24.09-158.62,30.93-208.83-56.48c-28.96-50.42-14.72-61.02-33.09-122.37
		c-6.85-22.86,2.28-49.76,18.26-52.45"/>
</g>
<g id="Lager_2" class="st5">
	<path class="st6" d="M610.5,410.5c0,0,14,6,17,20s-6,17,8,33s56,46,87,48s24,35,24,35s-18,14-40,10s-147-34-173-49s-16-21-22-37
		s-15-23-15-40s18-17,18-17"/>
	<path class="st6" d="M690.5,549.5c-10-6-5-37,35.07-36.53"/>
</g>
</svg>
