<svg width="1792" height="1792" xmlns="http://www.w3.org/2000/svg">

 <g>
  <title>background</title>
  <rect fill="none" id="canvas_background" height="402" width="582" y="-1" x="-1"/>
 </g>
 <g>
  <title>Layer 1</title>
  <path fill="#ff8264" id="svg_1" d="m1262,1229q8,25 -4,48.5t-37,31.5t-49,-4t-32,-38q-25,-80 -92.5,-129.5t-151.5,-49.5t-151.5,49.5t-92.5,129.5q-8,26 -31.5,38t-48.5,4q-26,-8 -38,-31.5t-4,-48.5q37,-121 138,-195t228,-74t228,74t138,195zm-494,-589q0,53 -37.5,90.5t-90.5,37.5t-90.5,-37.5t-37.5,-90.5t37.5,-90.5t90.5,-37.5t90.5,37.5t37.5,90.5zm512,0q0,53 -37.5,90.5t-90.5,37.5t-90.5,-37.5t-37.5,-90.5t37.5,-90.5t90.5,-37.5t90.5,37.5t37.5,90.5zm256,256q0,-130 -51,-248.5t-136.5,-204t-204,-136.5t-248.5,-51t-248.5,51t-204,136.5t-136.5,204t-51,248.5t51,248.5t136.5,204t204,136.5t248.5,51t248.5,-51t204,-136.5t136.5,-204t51,-248.5zm128,0q0,209 -103,385.5t-279.5,279.5t-385.5,103t-385.5,-103t-279.5,-279.5t-103,-385.5t103,-385.5t279.5,-279.5t385.5,-103t385.5,103t279.5,279.5t103,385.5z"/>
 </g>
</svg>