<svg width="512" height="512" xmlns="http://www.w3.org/2000/svg">

 <g>
  <title>background</title>
  <rect fill="none" id="canvas_background" height="402" width="582" y="-1" x="-1"/>
 </g>
 <g>
  <title>Layer 1</title>
  <path transform="rotate(-179.84347534179688 255.89300537109375,255.73623657226562) " stroke="null" id="svg_4" fill-rule="evenodd" fill="#ff8264" d="m167.175001,256.107723c-6.041609,0 -35.001763,0 -40.725044,0c-12.71877,0 -13.408482,12.444656 -13.090153,15.531059s11.000017,102.055865 11.635569,107.302859s2.914695,15.531059 13.090153,15.531059c9.221578,0 25.86861,0 36.361291,0c10.493787,0 11.635569,-9.798552 11.635569,-14.118656s0,-100.997639 0,-108.714186s-2.053661,-15.532136 -18.907385,-15.532136zm225.445089,21.177445c18.801276,-33.333591 -13.144313,-51.361118 -18.907385,-50.828237c-3.844258,-1.065762 -52.542989,0 -55.270887,0c-6.137771,0 -20.989784,2.029254 -15.999322,-11.294924c1.247892,-4.602154 25.853136,-43.745764 20.361969,-69.183027c-5.240261,-23.740657 -23.289928,-34.885944 -37.815875,-31.062119c-7.530458,1.98404 -1.727595,17.739017 -11.635569,40.944639c-11.480826,33.915993 -24.038221,28.491372 -45.088797,62.123161c-21.050576,33.63179 -14.719376,49.415833 -39.27046,49.415833c0,0 -0.207798,117.18538 0,117.18538c35.363199,0 64.194032,12.707328 74.178272,12.707328c9.985345,0 54.437485,0 69.815624,0c19.128446,0 29.985879,-8.431362 36.361291,-15.531059s9.851603,-18.131949 8.727506,-25.41358c7.125916,-2.54814 22.324995,-19.374262 11.635569,-43.768371c0.749398,0.002153 14.362362,-15.748518 2.908063,-35.295024z" clip-rule="evenodd"/>
 </g>
</svg>